<?xml version="1.0" encoding="UTF-8"?>
<svg id="Layer_1" data-name="Layer 1" xmlns="http://www.w3.org/2000/svg" viewBox="0 0 595.28 595.28">
  <defs>
    <style>
      .cls-1 {
        fill: #fff;
        stroke: #231f20;
        stroke-miterlimit: 10;
      }
    </style>
  </defs>
  <path class="cls-1" d="M242.39,461.06c.85-.48,1.49-1.5,2.02-1.77,1.01-.51.04,1.39,1.04,1.26-.64-2.24,1.84-2.18,3.16-2.93,5.92-3.37,11-5.91,16.83-9.21,1.07-.61,5.61-3.94,8.07-5.17.13-.16.29-.31.5-.46,1.03-.7,2.55-1.3,3.85-1.99.25-.13,3.26-2.36,5-3.03.52-.57,1.36-.5,2.02-.95,3.23-2.21,6.17-3.98,9.58-6.01.92-.55,5.23-2.49,5.48-2.68,11.44-8.56,24.43-15.84,36.06-24.37,1.57-1.15,4.65-4.46,6.3-5.35.61-.33,1.31.06,1.35,0,.13-.23-.19-.83.29-1.27.14-.13,2.78-1.94,4.11-2.74.33-.66,1.04-1.29,1.5-1.68.57-.49,1.09-.22,1.17-.29,1.04-.93,2.64-4.11,4.29-3.23-.62-1.72,2.99-3.23,3.92-4.17.4-.4.17-1.08.53-1.32.47-.31,1.49-.21,1.8-.44.05-.04-.33-.51.21-1.21,2.88-3.64,8.47-7.78,11.82-11.32,3.06-3.23,5.24-6.5,8.16-9.47.7-.71.12.88.84.63-.42-1.8.76-2.09,1.25-2.84.78-1.2,3.1-4.89,4-5.6.39-.31.97.04,1.01-.01.33-.42.56-2.43,1.54-3.33.43-.39,1,.07,1.03.02.12-.19-.35-.76-.18-1.27.34-1.01,2.15-2.01,2.54-2.61,6.76-10.49,12.77-23.09,17.23-34.67,3.22-8.36,5-15.18,6.88-24.12.07-.35.76-.28.75-.5-.05-1.45-.35-3.12.48-4.63.05-.1,2.26.38-.02-.87.49-3.29,1.5-6.96,1.88-10.2.42-3.59.02-9.13.65-12.37.07-.36,1.24-.11.84-1.54l-.83.22c1.32-4.41-.1-10,.43-14.27.09-.69.94-1.3.83-1.47-.05-.08-.88.28-1.16-1.14-.95-4.76-.95-11.63-1.56-16.72-.07-.6-1.59-1.6.2-1.47.21-.68-.65-.16-.83-.71-.32-.96-.57-3.36-.8-4.58-4.12-22.3-11.06-40.93-23.01-61.57-.62-1.07-2.08-5.48-2.26-5.75-.03-.04-.66.45-1.01.01-.65-.81-1.63-3.22-2.4-4.36-10.24-15.07-21.12-30.42-38.85-37.13-6.39-2.42-16.85-2.55-22.61,2.11l-6.34,2.77c-3.07,37.21-10.43,74.07-20.46,109.96-3.75,13.43-8.05,28.15-13.11,42.01-1.56,4.28-2.83,7.93-4.5,12.71-3.42,9.78-6.6,19.96-10.96,29.76-.35.79-.59,1.64-.64,2.51-.58.22-.37-1.7-1.25-.83-.14.14,1.01,1.53.22,3.78-.93,2.65-2.99,6.03-4.17,8.84-2.1,5.01-3.87,10.22-5.88,14.66-1.4,3.07-2.88,5.88-3.97,8.61-1.38,3.44-3.47,6.51-4.92,9.55-3.29,6.93-6.46,14.3-9.85,21.01-.59,1.17-2.43,2.26-1.65,4.05-2.15-.19-.64.46-1.03,1.26-.22.46-.98.75-1.24,1.27-2.68,5.54-5.11,10.95-8.06,16.33-2.07,3.77-5.19,10.31-7.52,13.49-.43.58-1.31.77-1.39.9-.13.21-.81,2.89-1.75,4.37-10.71,16.94-20.67,34.51-32.4,51.12-.87,1.23-3.91,4.27-4.06,4.54-.08.15.43.73.15,1.2-4.26,7.07-18.45,24.54-24.72,30.5-.37.35-6.71,7.38-10.35,11.11.06-.03.14-.09.2-.11.88-.37,1.41.1,1.45.05.08-.09-.02-.88.45-1.44.28-.33,6.69-4.86,7.15-5.07.59-.26,1.08.39,1.23,0-.15-.19-.18-.51,0-1.04,2.61-.89,6.08-4.04,8.43-5.25,1.13-.58.08.38,1.84-1.05,1.55-1.26,2.61-.74,2.71-.85.14-.15-.06-1.01.45-1.46,1.07-.93,7.21-4.22,9.02-5.27,2.44-1.41,3.9-1.97,6.15-3.51.67-.47,2.23-1.47,2.98-1.28.86-1.28,3.75-1.72,3.7-2.74.3-.09.37.03.4.21.79-1.42,2.68-1.61,3.67-2.41,1.05-.85,1.63-2.36,3.24-.85.3-.34-1.19-1.2.64-1.68.45.34-.09,1.01.62.84.57-3.02.5-1.02,1.95-.47-.55-.29-.5-1.37.08-1.84.35-.28,1.64-.38,2.37-.77,3.23-1.75,6.2-3.63,9.2-5.16.94-.48,2.78-1.09,3.85-1.32-.99-1.41.47-.66,1.26-1.11.97-.55,1.59-1.39,2.98-1.99.22-.09,2.73-1.02,4.07-1.46-.02-1.38.92-.84,1.23-1.06,2.41-1.67,1.47-1.01,3.88-1.52,1.16-2.27,6.32-4.03,8.7-5.37ZM335,151.63c1.57.13,4.32,2.87,5.52,3.96,4.4,4.01,8.19,10.17,11.28,15.17,2.1.74,4.35,8.64,5.38,9.31.12.08.74-.4.77-.36l1.28,4.62.82-.42c-.24,2.39,1.78,4.16,2.54,6.07,1.24,3.08,2.46,9.56,4.08,11.64.15.19-.19.46-.19.64.02,1.24.5-.16.71.12.7.97-1.33.82-.83,1.26.03.03.53-.13.8.33,1.87,3.13,3.13,11.6,4.38,15.11.95,2.68,1.21,6.43,2.03,9.55.09.35,1.16-.15.34,1.46l.83-.43c-.52,5.01,2.31,9.67,2.1,14.7-1,.17-.8-.1-1.03-.83-1.25-3.9-2.03-8.54-3-12.6-4.37-18.27-9.57-38.65-19.72-55.38-2.4-3.96-14.1-20.63-17.8-21.69-.59-.17-1.21.28-1.26.24-.47-.37-.23-2.57.97-2.47ZM306.74,231.97c.2-1.41,3.48,2.19,3.77,2.53,3.49,4.1,5.29,8.6,7.72,13.12.09.16,1.45,1.49,1.65,1.88.21.4-.05,1.26.26,1.69.28.4.97.48,1.11.72.35.59-.36,1.15-.17,1.61.06.15,1.45,1.19,1.99,2.43,1.63,3.8,2.09,8.13,4.58,11.6.1.13-.07,2.34.28,3.29.33.91.98.81,1.01.88.27.65.85,3.7,1.14,5.01.08.38.33.72.59,1.01-1.75.28.6,1.28,0,2.93l.84-.21c-.52,1.38.43,2.41.67,3.79.77,4.47,2.39,9.11,2.99,13.27.09.6-.44,1.33-.32,1.98.05.3.78.24.85.54.11.49-.61,3.22-.41,3.51l.83-.43c-.5,3.15.86,6.73,1.11,9.88.14,1.83-.17,3.92-.17,5.76,0,1.3.97,2.99-.31,4.09-.37-.25-.52-1.08-.58-1.51-1.26-8.43-1.59-16.87-3.24-25.41-3.61-18.71-9.75-39.17-20.39-55.08-1.03-1.53-5.37-6.35-5.72-7.3-.18-.49-.09-1.07-.09-1.59ZM278.41,328.73c1.17-.31,2.05,1.28,2.52,2.09,3.22,5.44,6,19.84,6.52,26.25.07.84-.4,2.54-.35,2.66.05.11.79-.09.79.69,0,.92-.8,1.67-.7,2.37.11.79,1.04.79,1.02.98-.29,3.24.12,6.14.04,9.26-.12,4.69-1.38,9.65-.84,14.49l-.42-2.94-.83.84c.32-14.02.04-28.6-3.23-42.32-1.07-4.51-2.57-9.05-5.09-12.97l.56-1.38Z"/>
  <path class="cls-1" d="M171.96,442.28c-.1,1.3-.39,2.62-.43,4.2-.01.49.48,1.37.41,1.44-.1.1-.57,0-.79.04l.83.42c-1.18,1.88-.09,3.33-.02,5.26.02.69-.29,3.67-.47,4.2-.1.3-1.74.2.06.79-1.03,1.73-.39,4.1-.64,5.91-.5,3.52-1.77,7.63-3.11,10.59-.34.75-.41,1.74-.62,2.39-.16.48-.31,1.11-.32,1.3-.01.14-9.15,21.48-11.78,27.56.95-1.18,1.66-2.05,1.87-2.3,13.89-16.59,25.43-30.08,36.8-47.58,14.32-22.04,30.05-46.88,41.65-69.94,5.24-10.43,11.53-22.53,16.5-33.04.44-.94,1.97-5.55,2.44-5.83.1-.06.69.5.78.37-.71-1.49.34-2.32.43-3.78l.83.42c.25-1.87.97-3.82,1.73-5.54,1.9-4.34,4.06-8.43,5.86-12.65,1.9-4.45,3.82-8.89,5.38-13.47l1.31-.25-.83-.61c1.09-1.76,1.53-4.73,2.4-6.43.76-1.48.59-.1,1.11-2.19,1.63-6.5,5.69-14.77,7.95-21,.74-2.03.97-6.21,3.22-7.14v-.41c-.66.03-.97.13-.8-.58,2.26-5.66,3.92-11.52,5.77-17.32,3.57-11.17,7.53-23.31,10.78-34.99,3.7-13.28,6.9-26.51,9.74-40.21,8.93-43.18,14.09-87.81,10.19-131.93-4.43-.1-8.41-.02-12.6,1.69,1.06,3.77,1.68,7.67,2.09,11.56,2.63,25.08-.99,55.82-4.82,80.78-6.19,40.37-13.32,81.5-24.58,120.65-5.58,19.39-12.03,38.54-19.23,57.58-7.47,19.75-16.38,38.92-25.98,58.02-6.17,12.28-12.99,23.99-20.31,36.38-8.68,14.69-17.35,30.72-27.24,45.28-2.55,3.76-10.98,16.1-14.18,18.33-.79.56-1.38,1.4-2.17.24l13.42-17.63c9.02-13.35,17.18-27.45,25.33-41.01,4.8-7.99,10.03-16.35,14.84-25.02,3.45-6.21,7.44-13.91,10.41-20.24.65-1.39,1.54-2.68,1.93-4.19l.81.41c.51-4.29,3.43-8.24,5.25-12.18,2.05-4.42,3.9-8.98,5.87-13.44l1.47-.42v-.41c-.6.05-1.02.09-.8-.58,6.25-14.65,11.8-29.61,17.1-44.64,10.15-28.81,19.32-60.53,24.72-91.13.3-1.72,2.19-11.55,1.8-12.26-3.21.73-6.67,2.07-9.6,3.62-12.84,6.81-22.37,24.64-30.01,35.45-.66.94-1.31,3.54-2.32,1.08,5.74-9.16,11.42-19.1,18.43-27.34,6.8-7.99,14.28-12.52,24.34-15.64l9.62-52.84c1.25-13.55,3.33-28.39,4.41-43.18l-15.43-9.13c-35.33-13.45-68.8,14.26-88.37,41.08-3.05,4.18-6.15,8.57-8.48,13.14l-.83-.83c-.17,1.16-.85,1,.41,1.46l-1.94,3.4c-.74,1.56-2.47,4.12-3.15,5.38-.24.45-.99.6-1.07.76-.11.2.13.69-.04,1.03-1.1,2.09-2.26,4.21-3.03,6.44-.81.2.02-.93-.83-.83v2.51s-.84-1.25-.84-1.25c-.6,1.09-.09,2.22-.33,3.23-.92,3.91-5.56,12.19-7.31,16.63-1.88,4.76-4.07,10.19-5.73,14.62-.11.3.49,1.47-.5,3.41-1.64,3.22-2.51,8.44-3.56,12.48-1.67,6.43-3.07,12.76-4.21,19.52-.16.94.12,3.86-1.03,3.57-.22.7.79.22.8.59.01.5-.45,2.3-1.22,1.93v.41s.86.24.86.24c-1.1,2.71-.53,6.98-1.29,9.56-.12.42-.8.26-.82.29-.16.26.65.6.68,1.04.02.21-.47.54-.47.82-.03,3.51-.15,6.96-.23,10.47-.14.5-1.02-.03-.82.67l.85.28c-.52,1.62.05,3.44,0,4.95-.05,1.54-.69,3.97-.69,5.48,0,.62.59.96.68,1.27.09.31-.81.12-.8.38.02,1.89.4,4.27.39,6.31-.01,4.49.78,10.47,1.2,15.58.58,7.07,1.4,14.2,1.8,21.41,0,.13.9.46,1.14,2.13,1.2,8.37,1.73,17.8,2.55,26.42.72,7.45.64,13.8,1.5,21.38.05.47.71.93.64,1.69-.03.29-1.32.22-.86.64.06.06.68-.15.97.52.38.88.2,6.61.31,8.06.42,5.43,1.39,11.34,1.27,16.77,0,.4.32.87.39,1.3-.75.15-1.4-.16-1.26,1.05,1.61-1,1.95.39.42,1.05,2.19,1.74.58,5.51.6,7.56.04,3.35,1.5,3.23.24,7.56-.09.31.7.11.79.4.34,1.07-.41,7.68-.38,9.27.05,2.4,1.54,4.97,0,7.12l.84.21c-1.48,1.39.46,3.64.02,5.6-.11.5-.83.08-.86.48-.04.44,1.02-.19.82.79-.27,1.31-.69.78-1.65,1.1,2.23-.4,1.78,2.35,1.65,3.97ZM217.24,331.38c10.52-17.7,25.03-33.7,44.48-42,.92-.39,4.74-2.04,5.13-.74.47,1.57-2.21,1.74-3.22,2.23-14.02,6.79-26.46,15.81-36.11,27.91-1.75,2.19-3.68,6.06-5.33,7.89-.74.82-1.8.71-1.93.83-.07.07.54,1.52.28,1.98-.44.77-2.16,1.35-2.26,1.45-.11.11-.7,1.76-1.38,2.73-.29.42-.36,1.31-.42,1.37-1.88,1.7.57-3.32.76-3.65Z"/>
  <path class="cls-1" d="M335.29,153.85c3.7,1.06,15.4,17.73,17.8,21.69,10.15,16.73,15.34,37.11,19.72,55.38.97,4.06,1.75,8.7,3,12.6.23.73.04,1,1.03.83.21-5.03-2.62-9.69-2.1-14.7l-.83.43c.83-1.62-.24-1.11-.34-1.46-.82-3.12-1.08-6.87-2.03-9.55-1.24-3.51-2.51-11.98-4.38-15.11-.28-.46-.77-.3-.8-.33-.49-.44,1.53-.29.83-1.26-.2-.28-.69,1.12-.71-.12,0-.18.34-.45.19-.64-1.62-2.08-2.84-8.56-4.08-11.64-.76-1.91-2.78-3.68-2.54-6.07l-.82.42-1.28-4.62s-.65.44-.77.36c-1.03-.67-3.28-8.57-5.38-9.31-3.09-5-6.88-11.15-11.28-15.17-1.2-1.09-3.95-3.83-5.52-3.96-1.2-.1-1.44,2.1-.97,2.47.05.04.67-.41,1.26-.24Z"/>
  <path class="cls-1" d="M312.54,240.86c10.64,15.91,16.77,36.37,20.39,55.08,1.65,8.54,1.98,16.98,3.24,25.41.06.43.22,1.26.58,1.51,1.28-1.1.31-2.79.31-4.09,0-1.84.31-3.94.17-5.76-.25-3.15-1.61-6.73-1.11-9.88l-.83.43c-.2-.3.52-3.02.41-3.51-.07-.31-.8-.25-.85-.54-.12-.65.41-1.38.32-1.98-.6-4.16-2.22-8.8-2.99-13.27-.24-1.38-1.19-2.41-.67-3.79l-.84.21c.6-1.65-1.75-2.65,0-2.93-.26-.29-.51-.63-.59-1.01-.29-1.32-.88-4.37-1.14-5.01-.03-.07-.68.03-1.01-.88-.35-.95-.18-3.16-.28-3.29-2.49-3.47-2.95-7.8-4.58-11.6-.53-1.24-1.93-2.28-1.99-2.43-.19-.46.52-1.02.17-1.61-.14-.23-.83-.31-1.11-.72-.3-.43-.04-1.29-.26-1.69-.2-.38-1.56-1.71-1.65-1.88-2.44-4.52-4.23-9.02-7.72-13.12-.29-.34-3.57-3.94-3.77-2.53,0,.52-.09,1.1.09,1.59.35.95,4.69,5.76,5.72,7.3Z"/>
  <path class="cls-1" d="M423.42,251.66c0-.18-.82-.16-.83-.39,0-.21.44-2.14.49-3.31.17-4.27-.55-7.9-.25-11.8.24-3.04-1.56-13.55-2.14-16.8-.33-1.9-.49-4.14-.78-5.7-.24-1.29-.85.45-.71-2.72,0-.11-1.24-1.12-1.22-1.22.06-.24.59-.63.67-1.04.29-1.54-.92-2.35-1.26-3.42-1.77-5.58-2.64-12.86-5.3-18.13-.14-.27-.74-.31-.76-.36-.07-.18.4-.99.28-1.72-.61-3.83-3.97-8.71-5.23-11.76-4.19-10.17-10.06-19.05-15.85-28.01-.61-.94-2.91-5.79-3.41-6.34-.34-.37-.93.02-1-.04-.72-.72-2.58-5.09-3.24-6.19-.97-1.62-3.76-4.09-4.66-5.48-2.55-3.89-6.84-7.77-10.47-10.67-5.46-4.37-18.07-12.36-25.15-11.8-2.85.23-17.3,3.86-20.55,7.41,1.66-20.62,2.01-41.35.73-62.06-.5-1.52-3.77-1.36-5.33-1.41-1.8-.05-4.16-.16-5.9.02-1.16.12-3.64,1.14-4.2,1.08-.57-.07-1.7-1.53-2.55.18-.19.38,1.95,6.86,2.21,8.3,2.28,12.61,2.16,26.37,1.17,40.18-4.47-4.73-14.73-11.16-20.35-12.6-23.05-5.94-44.26,4.36-61.38,18.29-11.28,9.18-21.88,22.35-29.73,34.6-1.31,2.04-4.28,6.36-5.11,8.32-.17.41-.34.76-.35,1.17-.77.75-1.37,2.05-1.88,2.9-2.29,3.87-4.46,8.66-6.2,12.29-7.38,15.33-13.82,32.36-17.9,48.49-.84,3.32-.99,6.74-2.14,9.97,2.44-.16-.09.74-.34,1.33-1.03,2.44-2.57,15.08-2.97,18.46-2.09,18.03-2.11,38.51-.46,56.62.83,9.16,2.68,18.3,3.54,27.43.12,1.23-.97,2.81,1.07,3.02v.41c-.96-.11-.88.21-.85,1.02.15,5.05,1.61,11.26,2.11,16.41.99,10.23,1.77,19.83,2.51,29.8.39,5.31.37,10.68.93,15.97l.76.19c.11.76-.89,0-.87,1.02.03,1.4.64,3.45.7,5.06.2,5.92.4,12.6.56,17.62.24,7.34.62,14.73.46,22.05.95-.31,1.38.21,1.65-1.1.2-.98-.85-.35-.82-.79.03-.4.75.02.86-.48.44-1.96-1.5-4.21-.02-5.6l-.84-.21c1.53-2.15.05-4.72,0-7.12-.04-1.59.72-8.2.38-9.27-.09-.29-.88-.09-.79-.4,1.26-4.33-.2-4.22-.24-7.56-.02-2.05,1.59-5.82-.6-7.56,1.53-.66,1.2-2.05-.42-1.05-.14-1.21.52-.9,1.26-1.05-.07-.43-.4-.89-.39-1.3.11-5.43-.86-11.34-1.27-16.77-.11-1.46.07-7.18-.31-8.06-.29-.68-.91-.47-.97-.52-.46-.42.84-.35.86-.64.07-.76-.59-1.21-.64-1.69-.86-7.58-.78-13.92-1.5-21.38-.83-8.62-1.36-18.05-2.55-26.42-.24-1.66-1.13-2-1.14-2.13-.4-7.2-1.21-14.34-1.8-21.41-.42-5.11-1.22-11.08-1.2-15.58,0-2.03-.37-4.42-.39-6.31,0-.26.89-.07.8-.38-.09-.31-.68-.65-.68-1.27,0-1.51.63-3.94.69-5.48.05-1.51-.51-3.33,0-4.95l-.85-.28c-.2-.7.68-.17.82-.67.08-3.51.2-6.96.23-10.47,0-.27.49-.6.47-.82-.03-.44-.85-.78-.68-1.04.02-.04.7.13.82-.29.75-2.58.19-6.85,1.29-9.56l-.86-.24v-.41c.77.37,1.23-1.43,1.22-1.93,0-.37-1.02.11-.8-.59,1.15.29.88-2.63,1.03-3.57,1.14-6.76,2.54-13.09,4.21-19.52,1.05-4.04,1.92-9.26,3.56-12.48.99-1.95.39-3.11.5-3.41,1.66-4.43,3.85-9.86,5.73-14.62,1.75-4.45,6.39-12.72,7.31-16.63.24-1.01-.28-2.14.33-3.23l.83,1.25v-2.51c.86-.09.02,1.03.84.83.77-2.23,1.93-4.35,3.03-6.44.18-.34-.06-.82.04-1.03.08-.16.82-.31,1.07-.76.69-1.26,2.41-3.82,3.15-5.38l1.94-3.4c-1.26-.46-.59-.3-.41-1.46l.83.83c2.33-4.58,5.43-8.97,8.48-13.14,19.56-26.82,53.03-54.53,88.37-41.08l15.43,9.13c-1.08,14.79-3.16,29.62-4.41,43.18l-9.62,52.84c-10.06,3.12-17.54,7.65-24.34,15.64-7.01,8.24-12.69,18.18-18.43,27.34,1.01,2.46,1.65-.14,2.32-1.08,7.64-10.81,17.17-28.65,30.01-35.45,2.93-1.55,6.39-2.89,9.6-3.62.39.71-1.49,10.54-1.8,12.26-5.4,30.6-14.57,62.32-24.72,91.13-5.3,15.03-10.85,29.99-17.1,44.64-.22.67.2.63.8.58v.41s-1.47.42-1.47.42c-1.97,4.46-3.82,9.02-5.87,13.44-1.82,3.94-4.74,7.89-5.25,12.18l-.81-.41c-.4,1.5-1.28,2.8-1.93,4.19-2.97,6.33-6.96,14.03-10.41,20.24-4.8,8.66-10.04,17.03-14.84,25.02-8.15,13.56-16.31,27.66-25.33,41.01l-13.42,17.63c.8,1.16,1.38.31,2.17-.24,3.2-2.23,11.63-14.57,14.18-18.33,9.88-14.57,18.55-30.6,27.24-45.28,7.32-12.39,14.14-24.11,20.31-36.38,9.6-19.1,18.51-38.27,25.98-58.02,7.2-19.05,13.66-38.19,19.23-57.58,11.26-39.15,18.39-80.28,24.58-120.65,3.83-24.96,7.45-55.7,4.82-80.78-.41-3.89-1.03-7.79-2.09-11.56,4.18-1.71,8.16-1.79,12.6-1.69,3.9,44.12-1.26,88.74-10.19,131.93-2.83,13.7-6.04,26.93-9.74,40.21-3.25,11.68-7.21,23.82-10.78,34.99-1.85,5.8-3.51,11.66-5.77,17.32-.17.71.15.61.8.58v.41c-2.25.93-2.48,5.11-3.22,7.14-2.26,6.22-6.32,14.5-7.95,21-.52,2.09-.35.72-1.11,2.19-.88,1.7-1.32,4.67-2.4,6.43l.83.61-1.31.25c-1.56,4.58-3.49,9.02-5.38,13.47-1.8,4.22-3.96,8.31-5.86,12.65-.75,1.72-1.47,3.67-1.73,5.54l-.83-.42c-.08,1.46-1.13,2.29-.43,3.78-.09.13-.67-.43-.78-.37-.47.28-2,4.89-2.44,5.83-4.97,10.51-11.26,22.62-16.5,33.04-11.6,23.06-27.32,47.9-41.65,69.94-11.37,17.5-22.92,30.99-36.8,47.58-.21.25-.92,1.12-1.87,2.3,2.64-6.08,11.77-27.42,11.78-27.56.02-.19.16-.82.32-1.3.22-.65.29-1.64.62-2.39,1.34-2.96,2.61-7.07,3.11-10.59.25-1.8-.39-4.17.64-5.91-1.8-.59-.16-.49-.06-.79.18-.53.49-3.51.47-4.2-.07-1.93-1.15-3.39.02-5.26l-.83-.42c.23-.03.7.06.79-.04.07-.08-.42-.95-.41-1.44.04-1.59.32-2.9.43-4.2.13-1.63.58-4.38-1.65-3.97-.1,5.74.11,11.56-.26,17.26-.37,5.78-1.3,12.09-2.7,17.74-.4,1.61-1.46,3.7-1.69,5.09-.03.16-9.93,23.98-11.22,28.76-2.54,3.16-6.26,7.85-7.8,10.05-2.23,1.68-5.09,4.36-6.47,5.5-5.46,4.52-11.87,9.67-16.7,15.08-.67.75-2.93,4.47-3.2,4.55-.16.05-2.85-.73-.36.72l-2.52,3.57c.3.29,2.02-1.43,2.26-1.71,7.78-8.97,15.81-16.88,25.08-24.04,2.44-1.89,4.89-3.87,7.36-5.66,2.31-1.68,5.09-3.44,7.64-4.74.12-.19.15-.5.11-.83,1-.17,2.49-.98,3.27-1.48,3.39-2.16,5.57-4.99,9.58-6.32.61-.2,3.63-2.8,4.72-3.25.84-.35,1.5,1.1,1.69-1.92l.42.84c1.39-1.02,1.98.17,1.68-2.1.75.37,1.49.35,2.23-.08.94-.54,3.33-2.68,4.16-3.13.29-.16,3.13-.65,3.26-1.2.08-.34.09-.59.06-.78,1.48-.56,3.67-1.03,4.08-2.23,1.97-.25,4.34-2.68,5.2-3.16.51-.28,1.94-1.19,2.09-1.25.69-.3,2.37,0,2.61-.86-.03,0-.06-.02-.09-.04.19.07.43.07.75-.07,1.16-.52,3.1-1.72,4.32-2.42,2.45-1.39,5.92-4.06,8.69-5.11.77-.29,1.52,1.03,1.27-1.08l.83.83c.98-2.92,3.39-2.31,5.35-3.24.11-.05,1.66-1.05,2.63-1.84,0,.02,0,.03,0,.05,1.24-1.03,3.66-1.45,4.76-2.49.45-.43.19-.72.27-.87-2.42.51-1.47-.15-3.88,1.52-.31.21-1.25-.33-1.23,1.06-1.34.44-3.85,1.37-4.07,1.46-1.39.59-2.01,1.44-2.98,1.99-.79.44-2.25-.31-1.26,1.11-1.08.23-2.92.84-3.85,1.32-3,1.52-5.97,3.41-9.2,5.16-.73.39-2.02.49-2.37.77-.58.47-.63,1.55-.08,1.84-1.45-.55-1.38-2.55-1.95.47-.71.17-.17-.5-.62-.84-1.83.48-.34,1.34-.64,1.68-1.61-1.51-2.19,0-3.24.85-1,.8-2.88.99-3.67,2.41-.03-.17-.09-.29-.4-.21.05,1.02-2.85,1.46-3.7,2.74-.74-.19-2.3.81-2.98,1.28-2.24,1.55-3.7,2.1-6.15,3.51-1.8,1.04-7.95,4.34-9.02,5.27-.51.44-.31,1.31-.45,1.46-.1.11-1.16-.41-2.71.85-1.76,1.43-.71.47-1.84,1.05-2.35,1.2-5.82,4.36-8.43,5.25-.18.53-.16.85,0,1.04-.15.39-.65-.27-1.23,0-.46.21-6.87,4.73-7.15,5.07-.47.55-.37,1.34-.45,1.44-.05.05-.58-.42-1.45-.05-.06.03-.14.08-.2.11,3.64-3.73,9.99-10.77,10.35-11.11,6.28-5.96,20.46-23.43,24.72-30.5.28-.46-.24-1.04-.15-1.2.15-.27,3.19-3.31,4.06-4.54,11.73-16.6,21.69-34.18,32.4-51.12.93-1.48,1.62-4.16,1.75-4.37.08-.13.97-.32,1.39-.9,2.33-3.18,5.45-9.71,7.52-13.49,2.95-5.38,5.37-10.79,8.06-16.33.25-.52,1.02-.81,1.24-1.27.38-.8-1.12-1.45,1.03-1.26-.78-1.79,1.06-2.88,1.65-4.05,3.39-6.71,6.56-14.09,9.85-21.01,1.44-3.04,3.53-6.12,4.92-9.55,1.1-2.72,2.58-5.53,3.97-8.61,2.02-4.44,3.79-9.65,5.88-14.66,1.18-2.81,3.24-6.19,4.17-8.84.79-2.25-.36-3.64-.22-3.78.88-.86.67,1.06,1.25.83.05-.87.29-1.72.64-2.51,4.36-9.8,7.54-19.98,10.96-29.76,1.67-4.79,2.94-8.44,4.5-12.71,5.06-13.85,9.36-28.58,13.11-42.01,10.03-35.89,17.39-72.75,20.46-109.96l6.34-2.77c5.76-4.66,16.22-4.53,22.61-2.11,17.73,6.72,28.62,22.06,38.85,37.13.77,1.13,1.75,3.54,2.4,4.36.35.44.98-.05,1.01-.01.18.26,1.64,4.68,2.26,5.75,11.95,20.64,18.89,39.27,23.01,61.57.23,1.22.48,3.63.8,4.58.18.55,1.04.03.83.71-1.79-.13-.28.87-.2,1.47.61,5.08.61,11.95,1.56,16.72.28,1.42,1.11,1.06,1.16,1.14.11.17-.74.79-.83,1.47-.53,4.27.89,9.86-.43,14.27l.83-.22c.4,1.43-.77,1.18-.84,1.54-.63,3.24-.24,8.78-.65,12.37-.38,3.24-1.39,6.91-1.88,10.2,2.28,1.25.07.77.02.87-.84,1.51-.54,3.18-.48,4.63,0,.21-.68.15-.75.5-1.88,8.94-3.66,15.76-6.88,24.12-4.46,11.59-10.47,24.18-17.23,34.67-.39.6-2.2,1.6-2.54,2.61-.17.51.29,1.08.18,1.27-.03.04-.6-.42-1.03-.02-.98.9-1.21,2.91-1.54,3.33-.04.05-.62-.3-1.01.01-.89.71-3.22,4.4-4,5.6-.49.75-1.67,1.03-1.25,2.84-.72.25-.14-1.34-.84-.63-2.93,2.97-5.1,6.24-8.16,9.47-3.35,3.53-8.94,7.67-11.82,11.32-.55.69-.17,1.17-.21,1.21-.3.23-1.33.12-1.8.44-.36.24-.13.92-.53,1.32-.94.94-4.55,2.45-3.92,4.17-1.65-.88-3.25,2.3-4.29,3.23-.08.07-.6-.2-1.17.29-.46.4-1.18,1.02-1.5,1.68-1.33.81-3.97,2.61-4.11,2.74-.48.44-.16,1.05-.29,1.27-.03.06-.74-.33-1.35,0-1.65.89-4.73,4.2-6.3,5.35-11.64,8.53-24.62,15.81-36.06,24.37-.26.19-4.56,2.13-5.48,2.68-3.41,2.02-6.35,3.8-9.58,6.01-.66.45-1.5.38-2.02.95-1.74.68-4.75,2.9-5,3.03-1.3.69-2.82,1.29-3.85,1.99-.21.15-.37.3-.5.46-2.47,1.23-7,4.56-8.07,5.17-5.83,3.3-10.91,5.84-16.83,9.21-1.32.75-3.8.69-3.16,2.93-1,.14-.03-1.77-1.04-1.26-.53.27-1.17,1.29-2.02,1.77-2.37,1.33-7.54,3.09-8.7,5.37,2.36-.5,3.65-1.41,5.88-2.11l-.42-.83c.3-.21,1.92.02,2.31-.11,2.03-.67,6.08-3.75,8.06-5.07,2.07-1.37,1.29-.46,2.17-.78.05-.02.08-.65.34-.76,2.73-1.21,11.08-5.08,13.03-6.83.36-.32.45-1.08.54-1.57.83-.09.02,1.04.83.83-.36-1.43,3.23-1.54,3.33-1.72.17-.31-.07-1.05.04-1.22.02-.04.53.42.73.29,1.45-.94,2.71-1.73,3.59-2.35.03-.01.05-.01.08-.03.52-.25,6.44-3.08,8.86-5.01l5.65-3.2c.02-1.96.45-.47,1.18-.7.12-.04,1.95-1.16,2.03-1.26,1.25-1.71,1.86-1.19,3.76-2.15,2.68-1.35,5.67-4.04,8.25-5.59,1.5-.9,4.03-.55,3.65-3.08.75-.2.18.95.62.83.97-.25,1.35-1.46,1.55-1.58.14-.08.79.33,1.46.02,1.83-.86,6.22-4.41,8.12-5.7,1.48-1.01,3.16-2.29,4.72-3.34.8-.53,3.32-1.46,3.55-1.7,1.47-1.55.15-.78,2.6-2.23,2.06-1.22,1.92-1.59,3.03-3.05.13-.18,2.64-.26,3.95-1.72.66-.73.55-1.64.61-1.7.1-.09.81.54,1.19.38.56-.25,2.68-2.89,3.09-3.22.09-.07.55.3.66.21.76-.65,2.23-1.99,2.94-2.68.27-.26,1.88-1.69,2.69-2.72,1.41-.53,5.2-3.09,5.36-3.34.17-.26-.53-1.1-.41-1.21.07-.06.75.13,1.11-.13,1-.72,3.61-2.92,4.62-3.8,2.15-1.89,4.27-4.68,6.02-5.99.4-.3,1.97-1.37,2.04-1.48.08-.13-.38-.67-.33-.74.08-.1,1.01-.17,1.41-.5.65-.54,4.72-4.49,4.77-4.83.08-.47-.45-1.16-.32-1.42.04-.08.56.27.83.14,2.83-1.37,8.02-8.34,10.1-11.16.46-.63,1.6-1.44,2.08-2.21l-.84-.62c2.16.21,1.74-.95,2.25-1.51,6.32-7.02,13.11-18.26,17.34-26.54,1.97-3.85,3.94-8.15,5.18-12.26l.83.43c-.55-1.81.62-2.66,1.05-3.82,1.79-4.82,3.65-9.85,4.96-15.18.67-2.72,1.88-6.49,2.69-10.31,1.31-6.22,2.01-12.51,2.69-18.69.3-2.73,1.96-8,.37-9.72.88-2.5,1.13-5.65,1.23-8.44Z"/>
  <path class="cls-1" d="M216.47,335.03c.07-.06.13-.95.42-1.37.68-.97,1.27-2.62,1.38-2.73.1-.1,1.82-.68,2.26-1.45.27-.46-.35-1.92-.28-1.98.13-.11,1.19,0,1.93-.83,1.65-1.83,3.58-5.69,5.33-7.89,9.65-12.1,22.09-21.12,36.11-27.91,1.01-.49,3.69-.66,3.22-2.23-.39-1.3-4.21.35-5.13.74-19.46,8.3-33.96,24.29-44.48,42-.19.33-2.65,5.35-.76,3.65Z"/>
  <path class="cls-1" d="M286.17,385.41l.83-.84.42,2.94c-.54-4.84.71-9.79.84-14.49.08-3.12-.33-6.02-.04-9.26.02-.19-.91-.19-1.02-.98-.1-.7.69-1.45.7-2.37,0-.78-.73-.58-.79-.69-.06-.12.42-1.82.35-2.66-.52-6.41-3.3-20.8-6.52-26.25-.48-.8-1.36-2.39-2.52-2.09l-.56,1.38c2.53,3.93,4.02,8.46,5.09,12.97,3.27,13.72,3.55,28.3,3.23,42.32Z"/>
</svg>