<svg width="43" height="269" viewBox="0 0 43 269" fill="none" xmlns="http://www.w3.org/2000/svg">
<path d="M23.9501 195.2L31.5501 237.45C30.3167 215.283 29.3001 187.367 28.5001 153.7L23.9501 195.2ZM16.3501 244.05L12.9501 223.65C12.3168 237.117 11.6168 248.867 10.8501 258.9L16.3501 244.05ZM19.9001 121.9L16.5001 88.2C16.1334 113.367 15.7001 136.3 15.2001 157L19.9001 121.9Z" fill="#AF7F51"/>
<path d="M17.25 18.15C16.9167 18.75 16.75 19.5333 16.75 20.5L16.55 81.55C16.5167 83.75 16.5 85.9667 16.5 88.2L19.9 121.9L15.2 157C14.5667 182.667 13.8167 204.883 12.95 223.65L16.35 244.05L10.85 258.9C10.6834 260.633 10.5334 262.367 10.4 264.1C10.3334 264.8 10.3667 265.467 10.5 266.1C10.6334 266.633 10.8334 267.117 11.1 267.55C11.3667 267.883 11.65 268.05 11.95 268.05H31.75C32.0834 268.05 32.3834 267.883 32.65 267.55C32.9167 267.117 33.1 266.633 33.2 266.1C33.3334 265.467 33.3834 264.8 33.35 264.1C32.6834 256.433 32.0834 247.55 31.55 237.45L23.95 195.2L28.5 153.7C27.9667 132.033 27.5334 107.983 27.2 81.55L26.95 20.5C26.95 19.5333 26.7834 18.75 26.45 18.15C26.15 17.5167 25.7834 17.2 25.35 17.2H18.4C17.9334 17.2 17.55 17.5167 17.25 18.15Z" fill="#BD8958"/>
<path d="M22.2499 114.8L10.6999 105.35C10.3999 105.117 10.0833 105 9.74994 105C9.38327 105.033 9.06661 105.183 8.79994 105.45L8.44994 105.8C8.18327 106.067 8.03327 106.383 7.99994 106.75C7.96661 107.117 8.08327 107.433 8.34994 107.7L17.9999 119.15C18.1999 119.35 18.4166 119.5 18.6499 119.6C18.9166 119.667 19.1833 119.667 19.4499 119.6C19.7166 119.533 19.9333 119.417 20.0999 119.25L22.3999 116.95C22.5999 116.75 22.7333 116.517 22.7999 116.25C22.8666 115.983 22.8499 115.733 22.7499 115.5C22.6499 115.2 22.4833 114.967 22.2499 114.8Z" fill="#BD8958"/>
<path d="M35.95 229.35C35.6167 229.35 35.3 229.467 35 229.7L23.45 239.15C23.2167 239.317 23.05 239.55 22.95 239.85C22.85 240.083 22.8333 240.333 22.9 240.6C22.9667 240.867 23.1 241.1 23.3 241.3L25.6 243.6C25.7667 243.767 25.9833 243.883 26.25 243.95C26.5166 244.017 26.7833 244.017 27.05 243.95C27.2833 243.85 27.5 243.7 27.7 243.5L37.35 232.05C37.6167 231.783 37.7333 231.467 37.7 231.1C37.6667 230.733 37.5166 230.417 37.25 230.15L36.9 229.8C36.6333 229.533 36.3167 229.383 35.95 229.35Z" fill="#BD8958"/>
<path d="M17.95 1.55003C17.7166 1.0167 17.4 0.633369 17 0.400036C16.5 0.200036 15.9666 0.166696 15.4 0.30003L14.75 0.500042C14.1833 0.633375 13.75 0.916684 13.45 1.35002C13.15 1.78335 13.0666 2.2667 13.2 2.80003L17.1 24.45C17.2 24.85 17.35 25.2167 17.55 25.55C17.85 25.8167 18.2 26 18.6 26.1C19 26.2 19.3666 26.2167 19.7 26.15L24.3 24.9C24.7 24.8 25.05 24.6167 25.35 24.35C25.6166 24.0167 25.7833 23.6834 25.85 23.35C25.9166 22.8834 25.8666 22.45 25.7 22.05L17.95 1.55003Z" fill="#BD8958"/>
<path d="M27.7 7.09999C27.4333 7.26666 27.2333 7.53334 27.1 7.90001L21.8 21.8C21.7 22.1 21.6667 22.4 21.7 22.7C21.7667 22.9667 21.8833 23.2 22.05 23.4C22.25 23.5667 22.4833 23.7 22.75 23.8L25.9 24.65C26.1 24.6833 26.3333 24.6667 26.6 24.6C26.8667 24.5 27.1 24.3667 27.3 24.2C27.4667 24 27.5833 23.7667 27.65 23.5L30.3 8.7C30.4 8.36666 30.35 8.05001 30.15 7.75001C29.9167 7.41668 29.6167 7.21668 29.25 7.15001L28.8 7.00001C28.4333 6.93335 28.0667 6.96666 27.7 7.09999Z" fill="#BD8958"/>
<path d="M27.3 143C27.5334 142.967 27.7 144.367 27.8 147.2C30.5334 140.833 34.7 136.483 40.3 134.15C40.6334 133.95 40.8334 133.667 40.9 133.3C40.9667 132.967 40.9 132.633 40.7 132.3L40.5 131.85C40.3 131.55 40.0167 131.333 39.65 131.2C39.35 131.1 39.0167 131.117 38.65 131.25L25.1 137.4C24.8 137.5 24.5667 137.683 24.4 137.95C24.2334 138.15 24.15 138.383 24.15 138.65C24.15 138.95 24.2167 139.2 24.35 139.4L26 142.25C26.1 142.483 26.2834 142.667 26.55 142.8C26.7834 142.933 27.0334 143 27.3 143Z" fill="#BD8958"/>
<path d="M2.65006 156.35C2.11673 156.417 1.6334 156.65 1.20007 157.05L0.750066 157.55C0.316733 157.95 0.0833984 158.4 0.0500651 158.9C0.0167318 159.467 0.183398 159.933 0.550065 160.3C10.6834 166.933 15.4167 172.533 14.7501 177.1C15.0167 177.4 15.3334 177.633 15.7001 177.8C16.0667 177.9 16.4667 177.9 16.9001 177.8C17.2667 177.7 17.5834 177.533 17.8501 177.3L21.2501 173.9C21.5167 173.633 21.7167 173.3 21.8501 172.9C21.9167 172.467 21.8834 172.083 21.7501 171.75C21.5834 171.317 21.3334 170.983 21.0001 170.75L4.05007 156.85C3.5834 156.517 3.11673 156.35 2.65006 156.35Z" fill="#BD8958"/>
<path d="M19.6042 76.0503C19.653 75.5886 19.8082 75.2019 20.0698 74.8903L32.8449 57.0772C33.2094 56.6344 33.6171 56.3527 34.0678 56.2319C34.6002 56.1583 35.1275 56.2585 35.6496 56.5328L36.2136 56.8993C36.7357 57.1735 37.0776 57.5478 37.2392 58.0221C37.418 58.5608 37.3778 59.0547 37.1185 59.5038C29.0472 68.5337 25.9245 75.1679 27.7503 79.4064C27.5704 79.7652 27.3249 80.0725 27.0138 80.3284C26.6855 80.5199 26.2992 80.6234 25.8547 80.639C25.4747 80.6373 25.1256 80.5582 24.8077 80.4019L20.6436 77.9977C20.317 77.8091 20.0375 77.5389 19.8052 77.187C19.6287 76.7857 19.5617 76.4068 19.6042 76.0503Z" fill="#BD8958"/>
</svg>
