<svg width="90" height="268" viewBox="0 0 90 268" fill="none" xmlns="http://www.w3.org/2000/svg">
<path d="M38.9039 194.98L46.5039 237.23C45.2706 215.063 44.2539 187.147 43.4539 153.48L38.9039 194.98ZM31.304 243.83L27.9039 223.43C27.2706 236.897 26.5706 248.647 25.804 258.68L31.304 243.83ZM34.8539 121.68L31.4539 87.9799C31.0873 113.147 30.6539 136.08 30.1539 156.78L34.8539 121.68Z" fill="#AF7F51"/>
<path d="M32.204 17.9299C31.8707 18.5299 31.704 19.3132 31.704 20.2799L31.504 81.3299C31.4707 83.5299 31.454 85.7466 31.454 87.9799L34.854 121.68L30.154 156.78C29.5207 182.447 28.7707 204.663 27.904 223.43L31.304 243.83L25.804 258.68C25.6374 260.413 25.4873 262.147 25.354 263.88C25.2873 264.58 25.3207 265.247 25.454 265.88C25.5873 266.413 25.7874 266.897 26.054 267.33C26.3207 267.663 26.604 267.83 26.904 267.83H46.704C47.0373 267.83 47.3373 267.663 47.604 267.33C47.8707 266.897 48.054 266.413 48.154 265.88C48.2874 265.247 48.3374 264.58 48.304 263.88C47.6374 256.213 47.0373 247.33 46.504 237.23L38.904 194.98L43.454 153.48C42.9207 131.813 42.4874 107.763 42.154 81.3299L41.904 20.2799C41.904 19.3132 41.7374 18.5299 41.404 17.9299C41.104 17.2966 40.7374 16.9799 40.304 16.9799H33.354C32.8873 16.9799 32.504 17.2966 32.204 17.9299Z" fill="#BD8958"/>
<path d="M41.291 114.034L7.8365 104.358C6.96755 104.119 6.05032 104 5.08483 104C4.02278 104.034 3.10556 104.188 2.33316 104.461L1.31939 104.819C0.546995 105.092 0.112519 105.416 0.0159697 105.792C-0.08058 106.167 0.257339 106.491 1.02974 106.764L28.9809 118.488C29.5602 118.693 30.1877 118.846 30.8636 118.949C31.636 119.017 32.4084 119.017 33.1808 118.949C33.9532 118.88 34.5807 118.761 35.0635 118.59L41.7254 116.235C42.3047 116.031 42.6909 115.792 42.884 115.519C43.0771 115.246 43.0288 114.99 42.7392 114.751C42.4495 114.444 41.9668 114.205 41.291 114.034Z" fill="#BD8958"/>
<path d="M57.8527 176C57.2198 176 56.6186 176.221 56.049 176.664L34.1201 194.583C33.6771 194.899 33.3606 195.342 33.1708 195.91C32.9809 196.353 32.9492 196.827 33.0758 197.333C33.2024 197.838 33.4555 198.281 33.8353 198.66L38.2021 203.021C38.5185 203.337 38.9299 203.559 39.4362 203.685C39.9425 203.811 40.4488 203.811 40.9551 203.685C41.3981 203.495 41.8094 203.211 42.1892 202.832L60.5107 181.12C61.017 180.614 61.2385 180.014 61.1752 179.318C61.112 178.623 60.8272 178.023 60.3209 177.517L59.6564 176.853C59.1501 176.348 58.5488 176.063 57.8527 176Z" fill="#BD8958"/>
<path d="M32.9039 1.32994C32.6706 0.796604 32.3539 0.413276 31.9539 0.179943C31.4539 -0.0200571 30.9206 -0.0533965 30.3539 0.0799368L29.7039 0.279949C29.1373 0.413282 28.7039 0.696591 28.4039 1.12992C28.1039 1.56326 28.0206 2.0466 28.1539 2.57994L32.0539 24.2299C32.1539 24.6299 32.3039 24.9966 32.5039 25.3299C32.8039 25.5966 33.1539 25.7799 33.5539 25.8799C33.9539 25.9799 34.3206 25.9966 34.6539 25.9299L39.2539 24.6799C39.6539 24.5799 40.0039 24.3966 40.3039 24.1299C40.5706 23.7966 40.7373 23.4633 40.8039 23.1299C40.8706 22.6633 40.8206 22.2299 40.6539 21.8299L32.9039 1.32994Z" fill="#BD8958"/>
<path d="M10.4452 51.3583C9.73845 50.6861 9.10075 50.2846 8.53214 50.1537C7.90794 50.1277 7.41209 50.37 7.04462 50.8806L6.66755 51.5369C6.30007 52.0475 6.19031 52.71 6.33831 53.5245C6.4863 54.339 6.87018 55.1098 7.4899 55.8368L31.3299 86.1791C31.7947 86.7244 32.2715 87.1923 32.7604 87.5828C33.2734 87.8184 33.7513 87.9016 34.194 87.8324C34.6367 87.7632 34.9717 87.5873 35.199 87.3046L38.0237 82.9083C38.2776 82.5391 38.4092 82.0722 38.4185 81.5077C38.3359 80.8615 38.1663 80.2701 37.9096 79.7335C37.5269 78.9968 37.0742 78.3741 36.5514 77.8654L10.4452 51.3583Z" fill="#BD8958"/>
<path d="M82.6065 31.8C83.5928 30.7713 84.2154 29.9181 84.4742 29.2402C84.6049 28.539 84.3658 28.0779 83.7569 27.8571L82.9594 27.6788C82.3505 27.458 81.5035 27.5783 80.4183 28.0396C79.3331 28.501 78.2683 29.2078 77.224 30.16L33.9558 67.6562C33.1726 68.3703 32.4885 69.0696 31.9034 69.7539C31.5166 70.4085 31.3339 70.9684 31.3555 71.4337C31.3771 71.8991 31.5546 72.2061 31.8881 72.3547L37.1836 73.88C37.6258 74.0265 38.2143 74.0019 38.949 73.8062C39.8046 73.4787 40.6022 73.0748 41.3418 72.5944C42.3619 71.9015 43.2441 71.1724 43.9887 70.4073L82.6065 31.8Z" fill="#BD8958"/>
<path d="M42.654 6.8799C42.3873 7.04656 42.1873 7.31325 42.054 7.67992L36.754 21.5799C36.654 21.8799 36.6206 22.1799 36.654 22.4799C36.7206 22.7466 36.8373 22.9799 37.004 23.1799C37.204 23.3466 37.4373 23.4799 37.704 23.5799L40.854 24.4299C41.054 24.4632 41.2873 24.4466 41.554 24.3799C41.8206 24.2799 42.054 24.1466 42.254 23.9799C42.4206 23.7799 42.5373 23.5466 42.604 23.2799L45.254 8.4799C45.354 8.14657 45.304 7.82992 45.104 7.52992C44.8706 7.19659 44.5706 6.99658 44.204 6.92992L43.754 6.77992C43.3873 6.71326 43.0206 6.74656 42.654 6.8799Z" fill="#BD8958"/>
<path d="M39.9478 158.987C40.4625 158.939 40.8301 160.943 41.0507 165C47.0795 155.885 56.2698 149.656 68.6215 146.316C69.3567 146.029 69.7978 145.624 69.9449 145.099C70.0919 144.621 69.9449 144.144 69.5037 143.667L69.0626 143.023C68.6215 142.593 67.9965 142.283 67.1878 142.092C66.5261 141.949 65.7909 141.973 64.9821 142.164L35.0954 150.969C34.4337 151.112 33.919 151.375 33.5514 151.756C33.1838 152.043 33 152.377 33 152.759C33 153.188 33.1471 153.546 33.4411 153.832L37.0805 157.913C37.301 158.247 37.7054 158.509 38.2936 158.7C38.8082 158.891 39.3597 158.987 39.9478 158.987Z" fill="#BD8958"/>
<path d="M40.3845 131.679C40.8574 131.621 41.1952 134.062 41.3979 139C46.9379 127.903 55.383 120.321 66.7332 116.254C67.4088 115.905 67.8142 115.411 67.9493 114.772C68.0845 114.191 67.9493 113.61 67.544 113.029L67.1386 112.245C66.7332 111.722 66.159 111.344 65.4158 111.112C64.8078 110.938 64.1321 110.967 63.389 111.199L35.9255 121.919C35.3174 122.093 34.8445 122.412 34.5067 122.877C34.1689 123.226 34 123.633 34 124.097C34 124.62 34.1351 125.056 34.4054 125.405L37.7496 130.372C37.9523 130.779 38.3239 131.098 38.8644 131.331C39.3373 131.563 39.844 131.679 40.3845 131.679Z" fill="#BD8958"/>
<path d="M5.24697 142C4.17236 142.111 3.19851 142.502 2.32539 143.171L1.41869 144.007C0.545577 144.676 0.075436 145.428 0.00827328 146.265C-0.0588895 147.212 0.276924 147.993 1.01571 148.606C21.4332 159.7 30.9703 169.066 29.6271 176.704C30.1644 177.205 30.8024 177.596 31.5412 177.875C32.28 178.042 33.0859 178.042 33.959 177.875C34.6978 177.707 35.3359 177.429 35.8732 177.038L42.7238 171.352C43.2611 170.906 43.6641 170.348 43.9327 169.679C44.067 168.955 43.9999 168.314 43.7312 167.756C43.3954 167.031 42.8917 166.474 42.2201 166.084L8.0678 142.836C7.12753 142.279 6.18724 142 5.24697 142Z" fill="#BD8958"/>
<path d="M34.5582 75.8302C34.607 75.3685 34.7622 74.9819 35.0238 74.6702L47.7989 56.8571C48.1634 56.4143 48.571 56.1326 49.0218 56.0118C49.5542 55.9382 50.0815 56.0384 50.6036 56.3127L51.1676 56.6792C51.6897 56.9534 52.0316 57.3277 52.1932 57.802C52.372 58.3407 52.3318 58.8346 52.0725 59.2837C44.0012 68.3136 40.8784 74.9478 42.7043 79.1863C42.5243 79.5451 42.2788 79.8524 41.9678 80.1083C41.6395 80.2998 41.2531 80.4033 40.8087 80.4189C40.4286 80.4172 40.0796 80.3381 39.7616 80.1818L35.5976 77.7776C35.271 77.589 34.9915 77.3188 34.7592 76.9669C34.5827 76.5656 34.5157 76.1867 34.5582 75.8302Z" fill="#BD8958"/>
</svg>
