<svg xmlns="http://www.w3.org/2000/svg" xmlns:xlink="http://www.w3.org/1999/xlink" version="1.1" x="0px" y="0px" viewBox="0 0 100 125" enable-background="new 0 0 100 100" xml:space="preserve"><g><g><path d="M81.392,28.454c-0.965-2.803-3.511-5.801-6.557-6.367c-1.082-0.694-2.303-1.173-3.569-1.418    c-0.076-2.425-1.324-4.59-3.188-6.115c-1.213-0.993-3.388-2.374-5.233-2.606c-1.701-0.658-3.664-0.754-5.652-0.069    c-3.54-4.594-10.777-5.204-14.96-1.065c-4.644-3.247-10.702,0.226-11.193,5.658c-3.065-0.662-6.427,0.707-7.861,3.619    c-1.343,2.733-0.552,5.905,1.471,7.992c-2.867,1.64-4.78,4.806-4.502,8.184c0.146,1.75,0.863,3.43,1.969,4.788    c1.279,1.57,3.988,2.233,4.818,4.001c0.79,1.687,1.024,3.278,2.303,4.774c0.495,0.579,1.054,1.098,1.66,1.555    c0.142,0.563,0.64,1.154,0.938,1.563c1.223,1.675,3.059,2.875,5.047,3.429c3.455,0.964,7.731-0.233,9.928-3.161    c5.049,6.705,16.987,4.802,20.337-2.687c0.239-0.536-0.442-0.941-0.787-0.46c-0.479,0.666-0.98,1.298-1.508,1.89    c-0.009-0.015-0.012-0.028-0.023-0.043c-0.551-0.711-1.103-1.423-1.654-2.132c0.646,0.278,1.242,0.628,1.823,1.076    c0.281,0.219,0.56-0.264,0.279-0.48c-0.241-0.185-0.48-0.35-0.725-0.503c0.724-0.008,1.43-0.1,2.107-0.277    c2.736,1.64,6.055,0.677,7.929-1.82c1.064-1.42,1.62-3.164,1.797-4.919c0.14-1.412,0.308-2.019,1.384-3.025    c0.635-0.596,1.295-1.099,1.844-1.785C81.74,35.382,82.51,31.708,81.392,28.454z M79.69,27.297    c0.22,0.376,0.414,0.779,0.577,1.218c-0.371-0.368-0.696-0.763-0.989-1.198c0.13-0.005,0.259-0.009,0.388-0.014    C79.675,27.303,79.682,27.299,79.69,27.297z M78.961,28.381c-0.029-0.217-0.064-0.435-0.11-0.652    c0.198,0.288,0.413,0.551,0.642,0.803C79.314,28.482,79.137,28.432,78.961,28.381z M79.033,29.777    c0.256,0.326,0.51,0.653,0.764,0.98c-0.271-0.076-0.544-0.152-0.818-0.227C79.009,30.281,79.025,30.029,79.033,29.777z     M79.319,26.726c-0.188,0.009-0.378,0.018-0.565,0.025c-0.061,0.003-0.114,0.024-0.16,0.056c-0.207-0.61-0.478-1.185-0.804-1.722    C78.364,25.57,78.879,26.109,79.319,26.726z M79.375,32.377c-0.24-0.071-0.492-0.123-0.753-0.162    c0.05-0.154,0.093-0.311,0.134-0.468C78.961,31.958,79.168,32.167,79.375,32.377z M79.358,34.452    c-0.499-0.149-0.995-0.299-1.493-0.447c0.169-0.311,0.322-0.632,0.457-0.958C78.629,33.555,78.969,34.017,79.358,34.452z     M78.554,36.207c-0.564-0.233-1.127-0.467-1.691-0.7c0.211-0.263,0.407-0.536,0.592-0.816    C77.82,35.196,78.188,35.701,78.554,36.207z M69.76,18.706c0.208,0.572,0.348,1.178,0.404,1.813c-0.697-0.056-1.4-0.048-2.1,0.049    c0.037-0.347,0.045-0.69,0.04-1.028c0.549,0.234,1.138,0.388,1.703,0.569c0.182,0.058,0.321-0.189,0.187-0.318    c-0.555-0.528-1.116-1.049-1.677-1.571c0.415,0.102,0.822,0.227,1.224,0.381C69.612,18.635,69.686,18.672,69.76,18.706z     M68.021,18.499c0.363,0.335,0.729,0.668,1.091,1c-0.335-0.102-0.675-0.191-1.019-0.252C68.08,18.995,68.057,18.745,68.021,18.499    z M68.573,16.909c0.074,0.034,0.157,0.015,0.216-0.028c0.282,0.391,0.525,0.806,0.729,1.242c-0.729-0.383-1.382-0.868-1.963-1.454    c-0.016-0.041-0.033-0.079-0.049-0.119C67.861,16.626,68.189,16.736,68.573,16.909z M67.698,16.196    c-0.129-0.033-0.259-0.063-0.392-0.089c-0.066-0.138-0.135-0.273-0.207-0.406C67.299,15.867,67.496,16.033,67.698,16.196z     M32.801,52.818c-0.076-0.086-0.201-0.254-0.35-0.467c0.171,0.086,0.348,0.164,0.523,0.24    C32.869,52.604,32.782,52.699,32.801,52.818z M33.203,52.692c0.225,0.093,0.454,0.179,0.688,0.253    c0.02,0.006,0.037,0.009,0.056,0.015c0.442,0.574,1.19,1.354,1.5,1.631C34.717,53.939,33.955,53.317,33.203,52.692z     M36.002,55.052c-0.285-0.374-0.557-0.765-0.861-1.119c-0.348-0.4-0.838-0.697-0.095-0.218c0.944,0.609,1.863,1.259,2.788,1.897    C37.204,55.496,36.592,55.305,36.002,55.052z M34.877,53.197c0.417,0.085,0.836,0.143,1.256,0.171    c0.477,0.72,1.087,1.574,1.552,1.847C36.821,54.708,35.818,53.896,34.877,53.197z M38.863,55.739    c-0.128-0.007-0.256-0.022-0.384-0.035c-0.003-0.033-0.015-0.065-0.04-0.093c-0.374-0.391-1.596-1.674-1.819-2.069    c0.277,0.435,2.108,1.651,2.822,2.208C39.254,55.753,39.061,55.75,38.863,55.739z M37.292,53.384    c0.183-0.008,0.366-0.024,0.549-0.042c0.103,0.188,0.213,0.404,0.332,0.622C37.887,53.762,37.582,53.565,37.292,53.384z     M39.987,55.726c-0.008-0.033-0.021-0.067-0.049-0.099c-0.038-0.046-1.534-1.817-1.418-1.968c0.111-0.143,2.543,1.751,2.41,1.644    c0.2,0.163,0.436-0.079,0.28-0.281c-0.365-0.472-0.737-0.941-1.107-1.411c0.713,0.438,1.363,0.945,1.984,1.553    c0.035,0.036,0.076,0.051,0.116,0.055C41.511,55.486,40.778,55.665,39.987,55.726z M38.574,53.24    c0.194-0.034,0.387-0.077,0.579-0.123c0.181,0.231,0.357,0.491,0.551,0.728C39.336,53.623,38.944,53.425,38.574,53.24z     M39.807,52.938c0.187-0.057,0.37-0.12,0.551-0.187c0.112,0.214,0.262,0.49,0.423,0.763    C40.441,53.296,40.083,53.091,39.807,52.938z M42.371,55.156c0.066-0.071,0.09-0.185,0.003-0.278    c-0.456-0.461-0.859-0.967-1.208-1.519c-0.094-0.165-0.168-0.294-0.224-0.392c0.211-0.036,1.668,1.179,2.349,1.744    C42.992,54.876,42.686,55.026,42.371,55.156z M40.945,52.515c0.246-0.107,0.49-0.223,0.729-0.348    c0.423,0.68,1.137,1.947,1.47,2.041C42.613,54.057,41.641,53.13,40.945,52.515z M43.726,54.458    c-0.46-0.582-1.492-1.786-1.439-2.16c-0.022,0.163,1.319,1.362,1.715,1.819c0.045,0.048,0.095,0.067,0.145,0.067    C44.006,54.279,43.867,54.369,43.726,54.458z M42.174,51.883c0.115-0.07,0.23-0.142,0.345-0.216    c0.08,0.238,0.175,0.467,0.279,0.688C42.598,52.194,42.388,52.036,42.174,51.883z M44.351,54.039    c0.03-0.072,0.028-0.159-0.038-0.233c-0.623-0.719-1.038-1.438-1.311-2.279c0.72,0.645,1.471,1.237,2.266,1.794    C44.968,53.577,44.663,53.815,44.351,54.039z M43.31,51.105c0.189-0.149,0.378-0.305,0.56-0.467    c0.481,0.628,0.903,1.277,1.272,1.971C44.505,52.139,43.896,51.638,43.31,51.105z M45.815,52.833    c-0.118-0.24-0.237-0.479-0.364-0.708c0.198,0.168,0.4,0.33,0.605,0.482C45.978,52.683,45.896,52.758,45.815,52.833z M51.42,55.49    c-0.233-0.163-0.607-0.429-1.094-0.702c-0.113-0.063-0.217,0.048-0.197,0.147c-0.744-0.359-1.472-0.77-2.185-1.22    c0.99,0.453,2.035,0.736,3.093,0.872c-0.026,0.057-0.028,0.121,0.012,0.173c0.346,0.458,0.54,0.709,0.609,0.822    C51.578,55.552,51.5,55.52,51.42,55.49z M52.278,55.787c-0.467-0.533-0.897-0.8,0.231-0.389c0.541,0.197,1.062,0.503,1.565,0.803    C53.462,56.106,52.864,55.967,52.278,55.787z M51.76,54.66c0.296,0.018,0.592,0.026,0.888,0.019    c0.003,0.005,0.003,0.007,0.006,0.012c0.079,0.11,0.212,0.307,0.356,0.498C52.612,54.99,52.172,54.817,51.76,54.66z     M54.776,56.287c0.003-0.06-0.021-0.12-0.083-0.163c-0.264-0.177-2.297-1.446-0.557-0.648c0.567,0.261,1.121,0.564,1.674,0.86    C55.463,56.334,55.117,56.318,54.776,56.287z M53.3,54.637c0.455-0.038,0.905-0.102,1.353-0.197    c0.257,0.361,1.047,1.469,1.077,1.443C55.616,55.98,54.053,55.074,53.3,54.637z M56.859,56.292    c-0.119,0.011-0.239,0.016-0.358,0.022c-0.001,0-0.001-0.001-0.001-0.002c-0.291-0.407-1.008-1.485-1.121-1.429    c0.191-0.096,1.484,0.794,2.238,1.315C57.369,56.236,57.116,56.269,56.859,56.292z M55.164,54.312    c0.285-0.076,0.565-0.165,0.844-0.265c0.306,0.495,0.633,0.965,1.002,1.403c-0.024-0.019-0.044-0.041-0.07-0.06    C56.396,54.996,55.76,54.658,55.164,54.312z M58.185,56.089c-0.257-0.244-0.515-0.489-0.748-0.754    c-0.334-0.377-1.195-0.926-0.47-0.85c0.669,0.071,1.581,0.837,2.208,1.348C58.854,55.934,58.523,56.018,58.185,56.089z     M56.525,53.848c0.249-0.104,0.496-0.214,0.736-0.338c0.341,0.408,0.671,0.884,1.062,1.235    C57.756,54.392,57.127,54.11,56.525,53.848z M59.655,55.669c-0.425-0.458-1.597-1.513-1.65-1.968    c-0.038-0.313,2.146,1.237,2.458,1.587c0.013,0.015,0.026,0.022,0.041,0.032C60.229,55.449,59.944,55.563,59.655,55.669z     M57.856,53.172c0.302-0.182,0.599-0.378,0.885-0.592c0.287,0.453,0.574,0.906,0.86,1.36C59.08,53.589,58.51,53.339,57.856,53.172    z M60.835,55.155c0.007-0.044,0.003-0.089-0.025-0.135c-0.427-0.687-0.854-1.375-1.28-2.065c0.849,0.49,1.699,0.98,2.548,1.47    C61.68,54.693,61.266,54.938,60.835,55.155z M59.193,52.214c0.258-0.217,0.506-0.448,0.746-0.693    c0.415,0.664,0.858,1.288,1.336,1.892C60.582,53.013,59.887,52.613,59.193,52.214z M62.498,54.129    c-0.003-0.002-0.004-0.005-0.006-0.007c-0.656-0.745-1.242-1.521-1.781-2.344c0.999,0.382,1.872,0.887,2.732,1.589    C63.139,53.638,62.822,53.89,62.498,54.129z M60.341,51.104c0.261-0.296,0.503-0.617,0.736-0.95    c0.555,0.645,1.07,1.311,1.556,2.001C61.918,51.716,61.167,51.372,60.341,51.104z M64.438,52.306    c0.019,0.017,0.042,0.025,0.062,0.037c-0.216,0.23-0.438,0.45-0.666,0.665c-0.493-0.796-1.021-1.55-1.591-2.28    C63.012,51.192,63.739,51.708,64.438,52.306z M61.412,49.635c0.053-0.082,0.109-0.157,0.157-0.241    c0.257,0.089,0.514,0.16,0.77,0.224c0.266,0.343,0.534,0.684,0.802,1.027C62.591,50.278,62.015,49.945,61.412,49.635z     M61.605,47.91c-0.337-0.145-0.775-0.118-0.97,0.254c-3.284,6.335-11.975,6.951-15.979,0.953c-0.249-0.372-0.794-0.5-1.128-0.146    c-2.676,2.833-6.958,3.914-10.514,2.048c-1.548-0.812-2.849-2.083-3.697-3.611c-0.675-1.212-0.622-3.025-1.43-4.096    c-0.615-0.814-1.716-0.956-2.559-1.426c-1.569-0.874-2.79-2.373-3.364-4.071c-1.257-3.699,0.908-7.453,4.36-8.916    c0.575-0.243,0.387-0.996,0-1.285c-5.151-3.86-0.678-11.551,5.238-9.423c0.457,0.165,0.977-0.265,0.96-0.73    c-0.204-5.359,5.237-7.949,9.684-5.642c0.248,0.252,0.659,0.344,0.982,0.021c3.65-3.654,10.238-3.077,13.143,1.227    c0.158,0.233,0.495,0.439,0.79,0.321c5.277-2.129,10.706,2.216,9.428,7.863c-0.115,0.518,0.327,0.994,0.857,0.857    c4.092-1.056,8.83,1.339,9.971,5.538c0.857,3.159-0.561,6.46-3.042,8.398c-0.034-0.008-0.063-0.018-0.098-0.025    c-0.198-0.048-0.361,0.135-0.312,0.318c-0.378,0.26-0.776,0.487-1.191,0.682c-0.009-0.004-0.017-0.008-0.025-0.012    c-0.162-0.082-0.38,0.039-0.396,0.203c-0.239,0.097-0.486,0.181-0.736,0.252c-0.331,0.095-0.639,0.51-0.49,0.865    C73.602,44.379,67.793,50.582,61.605,47.91z M76.215,36.236c0.187,0.224,0.373,0.446,0.561,0.67    c-0.284-0.136-0.572-0.259-0.864-0.371C76.015,36.438,76.116,36.338,76.215,36.236z M74.664,37.54    c0.177,0.249,0.365,0.487,0.562,0.716c-0.314-0.156-0.63-0.313-0.944-0.469C74.411,37.707,74.537,37.625,74.664,37.54z     M73.064,40.222c0.318,0.487,0.667,0.942,1.044,1.383c-0.314-0.154-0.637-0.295-0.965-0.43    C73.135,40.861,73.108,40.543,73.064,40.222z M74.239,43.822c-0.425-0.249-0.849-0.498-1.271-0.749    c0.063-0.301,0.109-0.609,0.14-0.921C73.484,42.71,73.862,43.267,74.239,43.822z M72.752,38.826    c-0.024-0.083-0.048-0.165-0.077-0.248c0.157-0.06,0.31-0.124,0.463-0.19c0.224,0.279,0.452,0.553,0.688,0.821    C73.489,39.064,73.143,38.935,72.752,38.826z M73.729,45.457c-0.434-0.217-0.892-0.373-1.412-0.482    c0.171-0.354,0.319-0.721,0.439-1.099C73.047,44.429,73.371,44.954,73.729,45.457z M72.832,46.392    c-0.393-0.159-0.919-0.283-1.133-0.352c0.121-0.178,0.238-0.361,0.348-0.55C72.247,45.73,72.565,46.103,72.832,46.392z     M70.539,49.407c-0.002-0.019-0.002-0.039-0.013-0.058c-0.499-0.852,0.178-0.583,0.844-0.273    C71.104,49.211,70.826,49.322,70.539,49.407z M69.738,48.339c-0.192-0.033-0.343,0.182-0.196,0.336    c0.817,0.86-0.499,0.295-0.855,0.215c-0.159-0.036-0.227,0.203-0.068,0.247c0.474,0.128,0.945,0.261,1.416,0.395    c-0.78,0.144-1.619,0.095-2.499-0.209c1.084-0.41,2.068-1.031,2.904-1.81c0.197,0.227,0.949,1.093,1.112,1.244    C71.316,48.65,69.807,48.351,69.738,48.339z M71.965,48.725c-0.335-0.346-0.772-0.802-0.784-1.008    c-0.008-0.128,0.855,0.267,1.396,0.534C72.382,48.422,72.178,48.582,71.965,48.725z M72.265,47.639    c-0.433-0.018-1.019-0.313-1.492-0.456c0.25-0.258,0.482-0.533,0.697-0.821C71.927,46.792,73.329,47.679,72.265,47.639z     M73.027,47.82c-0.231-0.351-0.529-0.734-0.612-1.049c-0.023-0.03-0.043-0.055-0.064-0.08c0.419,0.146,0.836,0.293,1.255,0.44    C73.424,47.374,73.231,47.605,73.027,47.82z M73.887,46.73c-0.491-0.359-0.928-0.772-1.303-1.252    c0.589,0.148,1.124,0.403,1.605,0.755C74.095,46.404,73.992,46.569,73.887,46.73z M74.475,45.69    c-0.466-0.608-0.876-1.239-1.237-1.91c0.544,0.317,1.086,0.634,1.627,0.955C74.753,45.06,74.623,45.379,74.475,45.69z     M75.288,42.861c-0.048,0.441-0.133,0.886-0.254,1.325c-0.468-0.597-1.288-1.472-1.391-2.056    c-0.383-0.419-0.284-0.462,0.297-0.128c0.416,0.208,0.821,0.44,1.208,0.699c0.052,0.031,0.102,0.037,0.148,0.029    C75.294,42.774,75.292,42.819,75.288,42.861z M75.313,42.203c-0.799-0.823-1.479-1.703-2.068-2.673    c0.676,0.253,1.29,0.588,1.89,1.031c0.128,0.093,0.263,0.03,0.334-0.078C75.286,41,75.311,41.626,75.313,42.203z M75.576,40.232    c-0.027,0.05-0.045,0.104-0.068,0.156c0.021-0.08,0.01-0.168-0.059-0.236c-0.646-0.646-1.249-1.306-1.821-2    c0.035-0.019,0.071-0.036,0.105-0.055c0.869,0.433,1.739,0.865,2.606,1.303C76.028,39.644,75.752,39.91,75.576,40.232z     M78.143,38.067c-0.356,0.362-0.854,0.665-1.33,0.987c-0.658-0.566-1.217-1.166-1.709-1.833c0.123-0.094,0.244-0.191,0.364-0.291    c0.794,0.29,1.552,0.657,2.285,1.122c0.273,0.173,0.511-0.2,0.325-0.421c-0.45-0.542-0.904-1.079-1.358-1.617    c0.779,0.32,1.557,0.641,2.335,0.962C78.778,37.36,78.477,37.727,78.143,38.067z M79.39,36.474    c-0.452-0.623-0.901-1.246-1.352-1.868c0.671,0.202,1.342,0.403,2.015,0.605C79.865,35.648,79.642,36.069,79.39,36.474z     M80.273,34.649c-0.418-0.372-0.881-0.772-1.114-1.271c-0.507-0.416-0.531-0.586-0.077-0.507c0.452-0.041,0.859,0.115,1.222,0.45    c0.007,0.007,0.013,0.014,0.021,0.021c0,0,0-0.001,0.001-0.002c0.016,0.016,0.034,0.026,0.052,0.042    c0.09,0.055,0.18,0.043,0.251,0C80.54,33.812,80.422,34.236,80.273,34.649z M80.699,32.987c-0.005-0.004-0.005-0.008-0.009-0.012    c-0.601-0.612-1.201-1.225-1.802-1.837c0.004-0.026,0.009-0.053,0.013-0.079c0.512,0.145,1.023,0.289,1.535,0.433    c0.205,0.058,0.453-0.202,0.303-0.395c-0.536-0.696-1.073-1.39-1.61-2.086c0.43,0.124,0.858,0.249,1.286,0.373    c0.045,0.012,0.086,0.01,0.126,0C80.848,30.572,80.889,31.799,80.699,32.987z"/><path d="M77.424,64.459c0.066-0.042,0.126-0.099,0.162-0.187c0.66-1.591,1.297-3.501,0.32-5.107    c-0.344-0.563-0.856-1.051-1.473-1.295c-0.188-0.074-0.939-0.062-1.429-0.067c-0.027-0.021-0.051-0.044-0.079-0.064    c-1.596-1.167-3.83-0.324-4.144,1.643c-0.009,0.056-0.007,0.108-0.003,0.158c-0.006-0.025-0.01-0.053-0.023-0.08    c-0.679-1.339-2.557-1.772-3.776-0.928c-0.659,0.458-1.27,1.625-1.225,2.598c-1.12,0.027-2.177,0.47-2.844,1.561    c-0.718,1.174-0.4,2.702,0.625,3.469c-1.171,0.463-1.877,1.88-1.521,3.162c0.216,0.776,0.805,1.399,1.514,1.752    c0.828,1.161,2.568,2.121,3.933,1.567c0.147,0.22,0.313,0.421,0.523,0.564c0.073,0.049,0.146,0.091,0.223,0.134    c1.469,1.118,3.345,1.64,5.187,1.153c0.579-0.153,1.218-0.415,1.622-0.879c0.678-0.776,0.531-1.693,1.494-2.313    c1.368-0.879,2.589-1.405,2.768-3.29C79.418,66.513,78.623,65.222,77.424,64.459z M76.136,62.11    c0.411,0.073,0.773,0.221,1.156,0.458c-0.064,0.282-0.141,0.556-0.217,0.817C76.715,62.984,76.401,62.571,76.136,62.11z     M76.814,69.385c-0.218-0.083-0.437-0.146-0.657-0.196c0.16-0.106,0.317-0.221,0.461-0.348c0.007,0.011,0.003,0.023,0.011,0.035    C76.691,69.045,76.752,69.215,76.814,69.385z M76.033,61.603c0.071-0.245,0.126-0.492,0.158-0.741    c0.365,0.271,0.634,0.604,0.813,1.005C76.695,61.733,76.374,61.648,76.033,61.603z M77.341,67.975    c0.116,0.155,0.213,0.309,0.302,0.478c-0.224,0.01-0.446,0.019-0.67,0.029C77.109,68.325,77.232,68.157,77.341,67.975z     M77.407,60.915c0.024,0.023,0.052,0.038,0.076,0.051c0.005,0.225-0.007,0.456-0.032,0.688c-0.193-0.423-0.477-0.78-0.845-1.076    C76.905,60.554,77.172,60.663,77.407,60.915z M76.052,59.17c0.365,0.28,0.657,0.602,0.903,0.962    c-0.236-0.045-0.481-0.03-0.732,0.042c-0.017-0.366-0.089-0.723-0.224-1.062C76.015,59.133,76.028,59.153,76.052,59.17z     M75.73,62.408c0.108,0.187,0.225,0.369,0.351,0.542c-0.152-0.114-0.299-0.235-0.44-0.366    C75.67,62.525,75.702,62.467,75.73,62.408z M65.537,71.683c-0.227-0.071-0.438-0.169-0.641-0.28c0.115,0,0.231-0.004,0.346-0.018    c0.149-0.018,0.321-0.087,0.492-0.154c0.178,0.17,0.358,0.341,0.558,0.46c0.187,0.113,0.398-0.152,0.234-0.304    c-0.112-0.104-0.244-0.194-0.381-0.279c0.112-0.016,0.214-0.01,0.3,0.045c0.217,0.138,0.383,0.386,0.543,0.667    C66.506,71.828,66.038,71.84,65.537,71.683z M68.049,71.434c-0.268-0.441-0.346-1.125-0.791-1.449    c-0.459-0.333-0.796-0.158-1.28-0.107c-0.835,0.09-2.184,0.852-2.664-0.584c-0.388-1.155,0.219-2.085,1.064-2.733    c0.062,0.015,0.119,0.033,0.183,0.044c0.257,0.046,0.588-0.024,0.714-0.29c0.128-0.274,0.133-0.538-0.099-0.767    c-0.5-0.49-1.193-0.236-1.392-1.173c-0.317-1.504,1.118-2.048,2.47-2.153c0.06,0.05,0.122,0.098,0.192,0.139    c0.239,0.139,0.492,0.045,0.625-0.15c0.291,0.013,0.562,0.043,0.775,0.087c0.381,0.076,0.69-0.495,0.283-0.672    c-0.337-0.147-0.691-0.268-1.053-0.353c-0.042-0.194-0.081-0.391-0.055-0.6c0.054-0.441,0.27-0.88,0.623-1.156    c0.814-0.64,1.917-0.328,2.576,0.356c0.232,0.243,0.568,0.022,0.568-0.253c0.122,0.503,0.897,0.665,1.049,0.053    c2.618-0.976,3.66-0.436,3.121,1.621c-0.196,0.596-0.501,1.125-0.915,1.587c-0.313,0.408,0.132,0.854,0.519,0.903    c0.671,0.087,1.167,0.409,1.495,0.846c0.013,0.101,0.064,0.195,0.171,0.266c0.506,0.931,0.362,2.224-0.44,3.037    c-0.908,0.92-2.053,1.111-3.282,1.018c-0.365-0.145-0.831,0.108-0.724,0.625C72.271,71.917,69.504,73.839,68.049,71.434z     M75.344,70.022c-0.195-0.081-0.39-0.161-0.582-0.242c0.105-0.025,0.211-0.055,0.316-0.088    C75.165,69.803,75.255,69.912,75.344,70.022z M73.017,69.885c0.256,0.032,0.516,0.042,0.776,0.032    c0.276,0.213,0.486,0.468,0.63,0.765c-0.446-0.244-0.896-0.438-1.376-0.586C73.038,70.025,73.031,69.955,73.017,69.885z     M73.597,71.733c-0.225-0.097-0.446-0.193-0.668-0.294c0.03-0.098,0.055-0.197,0.076-0.297    C73.2,71.339,73.398,71.537,73.597,71.733z M72.597,72.202c0.185,0.25,0.327,0.471,0.309,0.55c0.023-0.1-0.393-0.085-0.654-0.065    C72.381,72.535,72.496,72.373,72.597,72.202z M71.206,73.744c-0.168-0.013-0.337-0.036-0.502-0.063    c0.233-0.064,0.452-0.157,0.656-0.27c0.202,0.139,0.392,0.254,0.59,0.351C71.727,73.771,71.485,73.764,71.206,73.744z     M71.555,73.299c0.143-0.094,0.277-0.2,0.404-0.314c0.152,0.191,0.288,0.395,0.399,0.613    C72.06,73.565,71.793,73.463,71.555,73.299z M73.863,72.712c-0.415,0.507-0.774,0.787-1.189,0.93    c-0.221-0.424-0.556-0.972,0.485-0.448c0.135,0.068,0.276-0.07,0.206-0.207c-0.192-0.364-0.401-0.713-0.627-1.052    c0.034-0.072,0.066-0.147,0.096-0.224c0.439,0.191,0.875,0.389,1.305,0.6C74.063,72.442,73.977,72.573,73.863,72.712z     M74.312,71.982c-0.413-0.432-0.831-0.86-1.249-1.289c0.006-0.059,0.01-0.119,0.01-0.179c0.547,0.191,1.063,0.443,1.561,0.776    C74.51,71.517,74.423,71.743,74.312,71.982z M74.935,70.867c-0.075-0.233-0.167-0.447-0.286-0.638    c0.26,0.111,0.518,0.221,0.776,0.331C75.237,70.63,75.07,70.728,74.935,70.867z M76.886,70.111    c-0.19,0.114-0.425,0.179-0.669,0.235c-0.194-0.252-0.392-0.502-0.588-0.752c0.487,0.059,0.887,0.188,1.383,0.434    C76.971,70.055,76.931,70.084,76.886,70.111z M77.467,69.657c-0.038-0.246-0.097-0.459-0.193-0.671    c0.231-0.009,0.463-0.019,0.693-0.028C77.848,69.208,77.683,69.444,77.467,69.657z M77.639,67.333    c0.044-0.127,0.079-0.259,0.109-0.394c0.041-0.197,0.064-0.392,0.073-0.584c0.209,0.377,0.34,0.79,0.382,1.205    C78.017,67.484,77.827,67.407,77.639,67.333z"/><path d="M65.637,83.449c-0.325-0.67-0.867-1.224-1.597-1.475c-0.067-0.023-0.137-0.04-0.207-0.058    c-0.562-1.156-2.555-2.27-3.898-2.055c-0.665-0.12-1.37,0.077-1.917,0.484c-0.396,0.293-0.853,0.85-0.998,1.413    c-1.115-0.273-2.506,0.423-3.001,1.414c-0.374,0.751-0.313,1.663,0.046,2.409c0.166,0.344,0.436,0.732,0.77,0.997    c-0.691,0.228-1.298,0.548-1.721,1.277c-0.497,0.858-0.424,1.924,0.19,2.703c0.591,0.747,1.566,1.021,2.419,0.525    c0.347-0.203,0.62-0.501,0.891-0.793c0.399,1.555,1.863,2.585,3.426,2.521c1.257,0.959,3.073,1.073,4.385,0.097    c1.046-0.777,1.903-2.477,1.509-3.814c0.01-0.005,0.021-0.004,0.03-0.01C68.313,87.792,68.041,84.242,65.637,83.449z     M65.864,85.798c0.004,0.003,0.004,0.008,0.007,0.012c0.221,0.18,0.384,0.395,0.501,0.638c-0.222-0.076-0.446-0.132-0.671-0.177    C65.767,86.118,65.821,85.959,65.864,85.798z M61.466,81.025c0.448,0.195,0.858,0.466,1.206,0.812    c0.007,0.008,0.013,0.016,0.02,0.024c-0.359,0.055-0.709,0.172-1.02,0.354c0.023-0.413-0.053-0.83-0.232-1.198    C61.448,81.02,61.457,81.022,61.466,81.025z M57.262,89.726c0.196-0.15,0.384-0.305,0.512-0.512    c0.118-0.192,0.055-0.516-0.162-0.615c-1.349-0.618-1.699,1.581-2.828,1.554c-0.885-0.022-0.97-1.261-0.649-1.836    c0.279-0.502,0.83-1.054,1.37-1.427c0.143,0.021,0.294,0.013,0.447-0.032c0.257-0.077,0.392-0.379,0.25-0.617    c-0.26-0.436-0.758-0.634-1.014-1.088c-0.24-0.43-0.322-0.973-0.136-1.44c0.36-0.906,1.292-1.077,2.141-0.98    c0.15,0.156,0.4,0.208,0.579,0.099c0.229,0.018,0.353-0.224,0.251-0.414c0.13-0.398,0.146-0.781,0.509-1.116    c0.396-0.364,1.013-0.568,1.518-0.303c0.9,0.474,0.984,1.886,0.272,2.533c-0.266,0.242,0.09,0.722,0.391,0.506    c0.068-0.05,0.132-0.105,0.192-0.162c0.231,0.146,0.566,0.138,0.771-0.159c0.762-1.115,2.067-0.917,2.756-0.062    c-0.02,0.185,0.069,0.383,0.274,0.454c0.08,0.18,0.137,0.376,0.161,0.586c0.098,0.782-0.19,1.495-0.739,2.051    c-0.196,0.199-1.092,0.895-1.694,1.004c-0.149-0.116-0.323-0.187-0.523-0.198c-0.14-0.157-0.392-0.088-0.465,0.109    c-0.108,0.288-0.078,0.488,0.03,0.626c0.174,0.403,0.513,0.7,0.545,1.203c0.045,0.717-0.305,1.43-0.896,1.829    C59.556,92.375,57.792,91.29,57.262,89.726z M62.943,88.498c0.085-0.016,0.166-0.033,0.242-0.051    c0.009,0.03,0.023,0.061,0.05,0.088c0.381,0.391,0.719,0.805,1.025,1.244c-0.354-0.185-0.722-0.322-1.118-0.417    C63.117,89.085,63.053,88.779,62.943,88.498z M63.657,90.995c-0.239-0.074-0.479-0.148-0.718-0.222    c0.052-0.133,0.094-0.27,0.127-0.408C63.263,90.575,63.459,90.785,63.657,90.995z M64.508,88.428    c-0.26-0.059-0.521-0.118-0.78-0.175c0.134-0.063,0.265-0.128,0.391-0.203C64.248,88.176,64.376,88.302,64.508,88.428z     M62.612,91.407c0.168,0.175,0.335,0.352,0.494,0.533c-0.258-0.078-0.526-0.116-0.818-0.117    C62.408,91.695,62.515,91.555,62.612,91.407z M61.804,92.67c-0.005-0.008-0.013-0.014-0.025-0.016    c-0.186-0.027-0.37-0.054-0.556-0.081c-0.11-0.023-0.155,0.148-0.046,0.167c0.248,0.045,0.498,0.08,0.747,0.12    c-0.376,0-0.753-0.056-1.119-0.169c0.289-0.08,0.576-0.198,0.857-0.362c0.105-0.064,0.207-0.134,0.305-0.21    c0.078,0.123,0.28,0.433,0.403,0.568C62.237,92.664,61.998,92.663,61.804,92.67z M62.884,92.718    c-0.512-0.511,0.136-0.467,0.603-0.255C63.292,92.569,63.09,92.654,62.884,92.718z M63.928,92.173    c-0.033,0.027-0.069,0.048-0.104,0.073c-0.279-0.378-0.578-0.732-0.898-1.071c0.444,0.139,0.888,0.277,1.33,0.417    c0.196,0.063,0.317-0.19,0.191-0.328c-0.43-0.472-0.865-0.936-1.301-1.401c0.003-0.029,0.007-0.058,0.008-0.087    c0.606,0.158,1.139,0.428,1.665,0.828c0.031,0.024,0.064,0.032,0.097,0.032C64.777,91.201,64.506,91.718,63.928,92.173z     M64.998,90.179c-0.307-0.52-0.641-0.996-1.025-1.448c0.369,0.083,0.738,0.164,1.106,0.247    C65.062,89.395,65.05,89.797,64.998,90.179z M65.631,88.488c-0.135-0.132-0.341-0.108-0.454,0.019    c-0.237-0.229-0.476-0.458-0.712-0.688c0.032-0.023,0.063-0.049,0.096-0.074c0.476,0.029,0.941,0.098,1.417,0.22    c0.236,0.061,0.341-0.243,0.158-0.376c-0.305-0.222-0.548-0.459-0.76-0.728c0.045-0.066,0.09-0.131,0.131-0.198    c0.39,0.064,0.766,0.184,1.127,0.37c0.021,0.01,0.04,0.006,0.061,0.011C66.536,87.625,66.157,88.138,65.631,88.488z     M66.195,85.487c-0.084-0.067-0.181-0.069-0.256-0.033c0.021-0.137,0.042-0.272,0.047-0.413c0.004-0.104-0.006-0.209-0.012-0.313    c0.369,0.298,0.643,0.694,0.754,1.233c0.016,0.071,0.019,0.142,0.027,0.213C66.626,85.918,66.453,85.695,66.195,85.487z"/></g></g><text x="0" y="115" fill="#000000" font-size="5px" font-weight="bold" font-family="'Helvetica Neue', Helvetica, Arial-Unicode, Arial, Sans-serif">Created by Mint Shirt</text><text x="0" y="120" fill="#000000" font-size="5px" font-weight="bold" font-family="'Helvetica Neue', Helvetica, Arial-Unicode, Arial, Sans-serif">from the Noun Project</text></svg>