<?xml version="1.0" encoding="UTF-8"?>
<svg id="Layer_1" data-name="Layer 1" xmlns="http://www.w3.org/2000/svg" viewBox="0 0 595.28 595.28">
  <defs>
    <style>
      .cls-1 {
        fill: #fff;
      }

      .cls-2 {
        fill: #d6533e;
      }

      .cls-3 {
        fill: #de9c68;
      }
    </style>
  </defs>
  <path class="cls-1" d="M355.48,47.04c-3.96.45-7.8,1.78-11.71,2.56-2.45.49-5.24.85-7.37,1.14-1.51.21-2.6.68-4.31.85-2.41.24-4.85.49-7.44.72-2.41.21-3.1-.88-3.84,1.92-.89,3.37-1.22,7.33-1.91,10.81-.47,2.36-1.54,8.86-2.57,10.64-.2.34-.59.36-.64.43-.03.04.23.59.16.98-.11.67-.59,2.68-1.16,2.96-.41.21-5.28-1.63-6.18-1.75-.99-1.42-.82-.32-1.84-.29-4.08.12-9.55-1.25-13.94-1.45-1.06-.05-6.07.21-6.43,0-.15-.09-.21-.47-.29-.49-1.3-.34-.05.92-.12.96-.42.03-.88-.06-1.3.02-6.8,1.33-12.52,1.09-19.17,3.63-3.96,1.51-7.99,2.84-11.92,4.4-9.63,3.81-20.09,11.38-28.3,17.78-6.19,4.81-11.56,11.85-17.79,16.77-25.84,28.6-49.32,60.31-61.12,97.52-2.06,6.5-4.16,13.3-5.76,19.92-.64,2.65-1.78,6.69-2,9.28-.4,4.75.06,11.65.24,16.58.23,6.39.77,12.79,1.23,19.17,4.06,15.71,8.72,30.37,15.3,45.18,2.99,6.74,6.48,15.4,9.99,21.69,5.32,9.53,13.61,18.91,19.72,28.04,4.88,4.91,8.85,12.03,13.66,16.82,2.8,2.8,6.66,5.44,9.59,7.93,16.47,14,33.01,28,49.31,42.12,21.96,19.03,44.16,39.9,60.21,64.36,3.1,4.73,5.91,9.67,8.68,14.6,3.84.39,7.68,1.12,11.52,1.3.29-1.45.87-3.06,1.41-4.47,6.52-16.93,12.81-33.84,21.52-49.76,3.55-6.5,7.55-12.64,11.32-18.92,1.34-2.23,2.68-4.45,3.88-6.68.62-1.15,1.71-1.85.77-3.19,1.73.48,1.92-1.24,2.69-2.48,4.06-6.59,8.6-12.97,12.52-19.64,5.94-10.09,11.2-21.23,16.54-31.47s10.5-20.65,15.89-30.9c2.92-5.55,7.24-11.95,9.6-17.52,2.54-5.97,4.46-13.32,6.6-19.56,6.59-19.28,12.87-38.08,17.6-58,2.9-12.21,2.5-24.32,3.47-36.8.56-14.27-3.97-28.51-7.49-41.88-2.76-10.49-8.04-23.09-12.58-33.05-1.92-4.21-4.5-9.21-7.48-12.68-7.8-9.06-16.47-17.64-26.04-24.6-11.87-8.62-30.73-15.14-45.19-17.69-5.42-.96-10.97-1.18-16.34-2.26l8.85-45.57Z"/>
  <path class="cls-2" d="M373.24,205.92c-.37.37,1.29,1.85,1.55,2.17,1.1,1.34,1.2,1.98,2.04,3.42.27.47,1.88,1.65,2.37,2.25,2.36,2.9,4.92,7.01,7.1,10.18,3.79,5.49,7.48,11.28,11.08,16.76.71,1.08,2.58,3.29,2.73,4.47.07.52-1.23.62-1.56.61-2.75-.02-4.51-2.49-6.01-4.32-2.35-2.87-4.68-6.31-6.82-9.25-.8-1.1-2.75-3.39-3.24-4.45-.81-1.78-.36-.74-1.26-1.74-.28-.31-.62-1.63-.93-2.07-.17-.24-.56-.36-.78-.66-.27-.37-1.38-2.15-1.48-2.24-.47-.38-.63.55-.69.86-.56,2.92-.12,6.24-.75,9.22-.32.32-2.13-1.49-2.35-1.84-1.68-2.52-1.75-8.26-1.48-11.24.09-1.04.79-2.55.74-3.37-.08-1.33-2.1-3.05-2.82-4.06-7.12-10.01-14.44-19.85-21.68-29.72-.26-.35-.87-.45-1.08-.91-.17-.38-.05-.92-.24-1.2-.09-.13-1.21-.59-1.69-1.19-3.68-4.5-6.8-9.4-10.79-13.69-1.52-1.64-3.18-3.16-4.92-4.56.2.83-.28,1.55-.37,2.27-.76,6.13-1.04,12.57-1.41,18.69-.06,1-.06,3.23-.14,3.85-.02.16-.44.13-.49.31-.25,1.02-.09,3.64-.27,4.97-.92,6.91-2.1,13.82-2.12,20.87,0,1.54-.48,1.96-.72,3.41-.51,3.06.87,1.71,1.55,2.51.23.27.17.82.34,1.06.15.23.55.05.76.3,2.57,3.06,5.03,6.42,7.5,9.62.36.47,1.43.56,1.13,1.75,1.15-.5.49,0,.79.4.18.23.84.86,1.12,1.17,4.42,4.75,9.43,9,13.93,13.67,6.08,6.31,11.02,13.96,16.13,21.07,1.81,2.52,4.88,7.53,7.26,9.3.39.29,1.1.34,1.27.53.28.31.54,1.86-.1,2.08-.36.12-3.85-.81-4.41-1.05-2.13-.93-6.92-7.33-8.5-9.5-5.13-7.02-9.41-14.52-15.25-20.99l-7.8-7.56c-1.16-.09-.38.42-.19.92,1.65,4.4,4.39,12.06,5.05,16.54.06.43.15.93.02,1.34-.43,1.36-1.68-1.3-1.88-1.58-1.58-2.29-2.33-4.05-3.39-6.71-1.43-3.6-4.77-10.68-5.47-14.49-.12-.62.13-1.43-.09-1.96-1.16-2.8-6.58-5.86-8.7-8.45-.48-.59-1.05-2.19-1.67-2.18-1.11,0-.15,1.18-.1,1.81.11,1.57-.61,7.93-.98,9.55-.02.1-.7.69-.64,1.78.07,1.22.23.5-.03,1.91-.04.24.42.65.46,1.15.1,1.02-.36,4.73-.77,5.69-.1.24-.43.23-.45.32-.18.71.42.5.48.75.28,1.14-.43,1.58-.5,2.36-.22,2.58-.03,5.66-.23,8.39-.08,1.12-.08,2.6-.21,3.62-.06.48-.45.33-.57.64-.53,1.34.41,2.48.31,4.15-.07,1.16-.38,1.68-.7,2.47-.6,1.52.15,1.15.22,1.42.5,2.1-.69,4.53-.93,6.47-.17,1.36.16,2.79-.27,4.17,1.55-.19,1.21.57,1.78,1.21,2.06,2.31,5.22,4.91,7.57,7.32,7.89,8.1,17.53,16.74,23.56,26.12.42.66,2.76,2.63.92,2.68-3.28.1-5.29-2.48-7.06-4.94-1.59-2.22-2.45-3.56-4.34-5.74-1.63-1.89-2.92-3.85-5.04-5.28l2.5,11.17.02,1.78c-.24.05-.31-.02-.48-.11-1.75-.98-3.29-4.77-4.03-6.53-1.17-2.81-2.42-5.89-3.39-8.85-.37-1.13-.54-3.18-.86-3.94-.28-.67-5.09-5.19-6-6-.85-.76-2.1-1.47-3-2.28-1.15-1.04-2.59-3.68-2.39-.12l.48-.48c-.04,1.13.07,2.84-.25,3.91-.06.22-.43.08-.49.52-.07.55.08,1.24.02,1.82l.48-.24c-.07.74.1,1.58.02,2.3s-.41.99-.48,1.44c-.04.26.2,3.77-.73,2.99-.05-.04.06-1.25-.84-.96-.56.18-.38,1.42-.2,1.87.12.3.53.27.53.39-.07,1.43-.96,2.2-.68,4.32.05.37.43.63.47.99.06.44-.27.95-.22,1.16.14.6,1.32.29,1.42.38.09.08-.07,1.45-.02,1.82.05.42.72.61.52,2.16-.06.47-.51.24-.53.69-.02.63.38,1.23.27,1.87-.04.21-.89.64-.91.69-.06.18.33.81.19,1.16l-1.2-.96c-.33,1.05,1.35,2.89-.24,2.64.37.87-.22,2.31-.02,2.99.05.18,1.32.11.74.61-.08.06-.55-.17-.73.16-.67,1.21-.83,2.72-1.19,4.04.98-.04.8.83.47,1.63-.11.28-.55.11-.47.3.12.26.67.4.7.94.04.69-.59,1.39-.69,1.95s-.36,4.12-.2,4.38c.08.14.59.15.64.42.04.22-.22.5-.22.69,0,.2.67.01.48.49l-1.2.36c-.15,1.11,1.27,1.52,1.77,2.22,1.36,1.91,2.16,5.84,3.89,7.84,3.1,3.6,6.1,7.33,8.75,11.3.68-.4,1.34-1.09,2.2-.91,3.29.68,8.12,3.53,11.26,5.08,3.59,1.78,7.07,3.32,10.37,5.71.48.34,3.93,2.7,3.28,3.32-3.13,0-5.6-2.51-8.18-3.93-3.84-2.11-7.94-3.68-11.97-5.31-1.55-.62-3.22-1.91-5.04-1.8-.1.09.94,1.67,1.09,1.9,4.54,6.83,9.05,14.08,12.95,21.61.75,1.45,2.04,3.49,1.92,5.04-1.11-1.24-2.53-2.35-3.6-3.6-3.59-4.17-6.47-10.69-9.52-15.44-3.83-5.99-8.14-11.92-12.8-17.2-1.25-1.41-3.5-3.2-4.45-4.67-.41-.63-1.36-3.25-1.9-3.62-.72-.48-.88,1.17-.97,1.57,3.39.28.26,1.4.23,1.56-.1.53.43,1.17.51,1.9.06.55.07,1.9,0,2.43-.06.45-.75.24-.5,1.42.21,1.01,1.48.48,1.2,1.44-.03.1-.44.09-.48.28-.1.46.05,1.04,0,1.52l-.71-.48v-.23c.66.09.49-.41.47-.96-1.1.33-1.66,2.21-.47,2.78-.73,1.25-.01,2.68.47,3.94-1.08-.39-1.65.54-1.46,1.52.06.29,1.05.49,1.17.69.1.18.12,1.27.06,1.48-.04.13-2.38.39-.75,1.91.44.41.99-.22.73,1.36l-.72-.72c-.26,1.12.31,2.22-.96,2.76-.13.49.67.46.74.76.14.65-.59,1.53-.51,2.09.02.16.44.12.49.31.06.24.28,2.35.24,2.54-.14.78-1.71.34-1.44,1.26.05.17.63.25.73.48.34.82-.45.47-.66.65-.1.09-.03.44-.14.57-.3.36-.79.55-.88,1.18-.07.53.73.27.92.83,1.1-.23.67.82,1.25,1.58-1.3,1.33-.32,1.62-.28,2.62.03.62-.43,2.88-1,3.18-.35.18-1.07-.14-.89.43.08.25.8.13,1.15.78.22.41.55,1.51-.18,1.27v.23c.59-.21.65,1.29.67,1.8.09,1.84-.23,3.39-.39,5.08-.04.36.44.53.45.92,0,.16-.49.09-.5.26-.08.97.66,2.89.51,4.08-.08.57-.54.94-.5,1.41.03.39.61,1.4.7,2.21.3,2.72-.95,4.65-.7,7.18.95,9.95,1.62,20.22,3.2,30.4.17,1.07.71,2.05.86,3.22.29,2.13.77,6.29.16,8.26-.24.78-1.1.8-1.12,1.31-.02.4.21,1.63.29,2.14.68,4.27,1.33,9.8,1.43,14.17.04,1.72.04,3.57-.86,4.94-3.96-.49-2.94-4.6-3.24-7.57-.2-1.99-.55-4-.71-6.01-.28-3.37-.08-7.18-.73-10.55-.09-.45-1.68-1.85-1.87-2.45-.27-.89.17-1.66.14-2.35-.12-2.88-.7-5.27-.69-8.37.01-7.3-.42-14.96-1.18-22.34-.24-2.32-.9-4.89-.97-7.22-.02-.83.36-1.57.27-2.39-.07-.67-.63-1.38-.69-2.23-.13-2.17-.38-5.27-.32-7.37.01-.45.47-.22.53-.69.26-2.05-.54-3.7-.7-5.53-.14-1.6.62-3.13.42-4.78-.41-3.31.02-5.59-.21-8.67-.08-1.1-.67-2.3-.72-3.14-.04-.59.29-1.12.25-1.65-.06-.89-.45-1.99-.42-2.85.02-.48.42-1.13.4-1.46,0-.14-.44-.11-.49-.3-.38-1.57.13-5.28.05-7.4-.16-4.19-.33-7.52-.04-11.75.27-3.93-.68-8.13-.48-12.25.09-1.84.73-3.5.46-5.51-.6-4.51-.26-8.69-.47-13.21-.37-7.93-1.26-15.97-1.37-24.21-.01-.85.03-.94-.06-1.96-.07-.83.02-1.68-.01-2.51-1.87,1.85-2.89,4.41-4.45,6.46-10.72,14.05-19.58,29-29.63,43.57-6.34,9.2-13.73,17.63-20.63,26.41-1.42,1.81-2.96,4.51-4.44,6.12-1.71,1.86-1.97.66-1.95-1.36.03-2.87,3.23-6.41,4.91-8.64,1.93-2.56,4.42-6.35,6.55-8.57,1.65-1.72,2.47-3.5,4.05-5.32,7.41-8.56,12.37-16.46,18.39-26,.46-.72,1.48-1.41,1.54-2.3.03-.37.04-.43-.34-.34-3.68,1.75-7.14,3.82-10.56,6.02s-6.42,4.67-9.67,6.88c-.53.36-4.14,2.71-4.39,2.44-.26-1.13.58-1.57,1.05-2.42.66-1.18,1.08-2,2.06-2.97,4.77-4.73,10.94-9.02,16.83-12.46,1.91-1.11,3.82-2.33,6.09-2.55.58-.06,2.39.21,2.52.13.6-.37,4.19-6.37,4.99-7.51,2.48-3.56,5.02-7.04,7.5-10.57.52-.75,2.23-3.72,2.87-4.02.54-.26,1.51.08,1.81-.35.44-.62.18-2.54.35-3.2.05-.22.46-.25.57-.43,1.29-2.12,2.59-4.24,4.18-6.15.31-5.57-.87-11.68-.1-17.18.32-2.31.43-1.44.16-3.9-.69-6.31.72-13.69.22-20.16l.97-14.51c-.64-.68-3.59,2.84-4.06,3.26-2.32,2.11-4.96,4.01-7.38,6.18-.77.69-5.18,4.71-5.48,5.2-.34.56.12,1.22.02,1.92-.23,1.58-2.03,4.91-2.61,6.77-.88,2.83-1.32,5.84-2.12,8.68-.17.61-.65,1.07-.46,1.83-1.24.14-.47-.29-.5-1.05-.19-4.48.24-9.2,1.4-13.53.05-.2.19-.71-.06-.78-6.12,5.31-11.79,11.17-17.83,16.55-11.2,9.98-23.56,19.87-36.12,28.14-1.34.88-3.5,2.45-4.88,3.04-.35.15-.97.48-1.3.14.48-1.74,1.67-3.45,3.01-4.67,5.44-4.95,13.45-9.67,19.47-14.36,2.52-1.96,5.09-3.86,7.52-5.93.1-.52-.23-.37-.59-.35-1.55.06-4.81.85-6.42,1.26-1.4.36-10.34,3.68-10.74,3.29-.15-1.15,1.07-1.54,1.58-2.14.42-.5.43-1.09,1.05-1.59.89-.72,3.46-1.54,4.64-2.08,3.58-1.68,7.43-3.27,11.36-4.24.74-.18,1.87-.4,2.61-.26.92.18,1.17,1.28,1.36,1.4,1.01.59,3.44-2.64,4.06-3.18,4.48-3.92,9.05-7.86,13.29-11.91.49-.46,2.23-1.91,2.45-2.23,1.41-1.95,3.57-3.45,5.48-5.2,5.07-4.67,10.19-9.29,15.24-14.04,1.5-1.41,2.96-4.54,5.28-3.24-.34-2.16.64-1.16.95-1.45.26-.24.48-6.03.56-7s.63-2.63.36-3.62c-.16-.59-1.45-1.46-.32-2.57l.36.72c.42-2.29.8-4.62.72-6.96l-.48.48.24-4.08.48,1.44c-.1-.75.16-1.8,0-2.48-.09-.41-.23.4-.24-.99,0-3.38.17-5.2,1.18-8.23.43-1.28.3-3.46.5-4.85l-.72.72c0-.52-.03-1.04,0-1.56.34-5.14,1.21-10.22,1.59-15.4.07-.93-.29-1.72.32-2.82-.34-1.18-3.45,1.24-4.05,1.68-11.86,8.48-23.42,17.39-35.32,25.88-10,7.13-20.25,13.74-29.95,21.17-2.33,1.78-6.15,4.37-8.07,6.33-1.06,1.08-.23.84-.15,1.63.44,4.57-2.75,16-4.87,20.23-.18.36-1.43,2.49-1.62,2.57-1.54.68-1.06-2.44-.86-3.13.28-.97,1.31-2.29,1.75-3.29,1.59-3.68,3.13-11.02,3.01-14.99-.01-.36.16-.71-.37-.6-2.13,1.91-4.37,3.72-6.52,5.6-8.2,7.19-15.88,15.35-24.62,21.76-.28.21-.67,1.17-1.36.7-1-.68,1.36-4.35,1.98-4.94.36-.34.94-.53,1.36-.92,6.24-5.76,12.62-11.76,19.14-17.41,23.74-20.56,50.73-37.88,75.89-56.76,1.95-1.46,10.93-9.05,12.4-9.23.58-.07,1,.15,1.53.24-.38-1.57.57-1.46,1.17-2.31.93-1.32.53-4.93.74-6.7,1.03-8.73,2.24-17.36,3.14-26.14.09-.84.65-2.95.48-3.57-.06-.23-.47-.14-.48-.16-.36-.5.36-.46.41-.51.65-.74,1.09-8.5,1.02-9.92-.04-.92-.31-4.3-.48-5-.05-.22-.5-.05-.48-.49.41-6.99,2.7-14.64,3.36-21.88.25-2.8.38-4.35,1.03-7.13,1.06-4.53,2.4-10.08,2.81-14.71.09-.97-.25-3.83.3-4.38.49-.49,5.57-.64,6.48-.48,1.38.24.95.94,1.31,1.15.49.28,1.49.13,2.05.3.93.29,2.89,1.82,3.66.64.44-.68.12-1.63,1.27-1.86.95-.19,3.35.63,2.9,1.93l-1.63,5.6c-.43,8.47-2.07,16.89-2.89,25.42-.08.87-.26,3.15-.46,3.83-.09.31-.65.06-.73.14s.55,2.06.61,2.15c.14.23.59.28.72.49.19.28-.23,4.79-.61,5.52,1.91-.16,2.89-1.59,4.88-1.58.77,0,1.69.34,2.44.38,5.46.3,11.18.67,16.56,1.44,1.32.19.91.71,0,1.21-1.23.68-3.17,1.05-4.57.97-5.3-.3-12.85-1.39-18.01-.64-.23.03-.45.44-.77.56-.41.15-1,.14-1.34.34-1.14.65-.28,3.84-.92,5.08-.32.62-1.05.15-.92.76.07.32.71-.2.96-.12.2.21-.91,2.35-.9,2.72,0,.12.6,1.77.67,1.84.6.58.33-.87.71-.72-.38,1.64.54,4.18.26,5.63-.07.37-1.01-.45-.69,1.16.09.45.72.86.07,1.13-.24.1.06-.6-.36-.48-.21.69.43,1.27.47,1.81.3,4.43-1.13,8.84-1.41,13.21,0,.12.46,0,.48.45.11,2.51-.95,6.65-1.18,9.37-.17,1.98.4,5.18-.45,7.03-.18.39-.54.27-.56.29-.09.15.48.41.45.8-.03.33-1.1,1.34-.45,1.84.23.18,4.77-2.01,5.62-1.18l11.33,15.07c3.64-1.5,7.83-.99,11.66-.38,1.02.16,5.77,1.13,6.2,1.72,1.07,1.46-2.1,1.17-3.01,1.09-2.42-.19-5.17-1.11-7.68-.98-1.93.1-3.71,1.01-5.64.86,2.08,2.71,4.29,5.33,6.34,8.06,4.48,5.94,8.83,12.77,13.47,18.45.64.78,2.24,2.74,3.12,2.88,1.02.16,2.24-.08,3.32.04,1.39.15,3.28.53,4.62.9.75.21,6.12,2.18,6.3,2.46.06.1.05.67.03.69-.06.06-1.61.24-1.8.24-1.29-.02-2.88-.8-4.17-1.06-.41-.08-1.5-.38-1.59-.38h-5.16ZM310.36,341.76c.31-3.95.68-7.92.96-11.88.48-6.84.6-13.8,1.21-20.63.11-1.19.92-3.98.86-4.81-.03-.4-.47-.64-.51-.95-.13-.93.11-4.19.12-5.51.17-22.5,2.02-44.82,3.87-67.21,3.54-42.83,8.26-85.58,12.46-128.41.53-5.41.64-10.9,1.24-16.28.84-7.54,2.86-14.83,3.81-22.35-.12-1.09-3.54-1.24-4.44-1.56-.16.75-.56,1.4-.74,2.15-2.85,12.14-4.05,24.24-5.93,36.55-.63,4.11-1.11,7.48-1.44,11.58-1.59,19.88-4.44,39.67-6.42,59.53-2.52,25.37-5.16,50.78-5.99,76.33-.41,12.74-.76,25.44-.73,38.13.03,11.82,1.16,23.65,1.45,35.53.16,6.31-.26,12.67,0,18.97.01.29-.18.89.24.84Z"/>
  <path class="cls-2" d="M277.41,91.51c.23.26,2.54,3.53,2.61,3.75.2.6.3,1.27-.3,1.65-.93.6-1.14-.14-1.76-.32-5.58-1.65-13.19.26-18.3,2.82-.58.29-3.58,2.56-4.02,2.1.05-.72-.11-1.54.05-2.23.03-.11.75-1.98.8-2.08.38-.66,1.73-.79,1.18-1.95,5.15-3.09,11.1-5.72,17.24-5.21.48.1,2.18,1.1,2.5,1.46Z"/>
  <path class="cls-2" d="M300.44,86.73c1.69,1.07,3.21,3.25,4.68,4.32.49.36,1.31.47,1.76.88.41.38,3.14,4.94,3.33,5.54.12.38.2.75.16,1.16-.78.82-6.58-4.74-7.55-5.29-2.49-1.4-6.28-2.61-9.14-2.64-1.36-.01-3.11.89-4.67.49-.05-1,.17-2.25-.25-3.19-.11-.26-.55-.11-.47-.29.24-.54,1.39-1.62,1.99-1.85,3.24-1.25,7.22-1.01,10.16.86Z"/>
  <path class="cls-2" d="M352.78,445.03c.26.3,1.24,2.41,1.35,2.86.08.33.25.55.05.91-.09.17-1.57,1.48-1.92,1.94-2.72,3.6-5.21,7.62-7.68,11.28-.93,1.38-1.75,2.6-2.54,4.06l-.36-.72c-.47.43-.65,1.11-1.1,1.55-.9.88-.7.45-1.57,1.79-.22.34-.57,1.1-1.05.98-.14-1.9.76-3.64,1.44-5.35,1.81-4.58,7.23-14.97,10.79-18.54.55-.56,1.84-1.6,2.58-.76Z"/>
  <path class="cls-2" d="M416.39,344.58c-.39.47-1.23-.14-.66,1.02-1.4-.2-.19.59-.58,1.2-.21.33-1.59.74-1.76,1.02-.13.21.02.6-.13.82-.3.46-2.5,2.23-3.15,2.96-.11.13-1.04,1.89-1.1,1.07-.01-.2.77-2.79.92-3.16,3.14-7.66,7.54-13.98,9.77-22.39.25-.96.59-4.18,1.25-4.51.22-.11,1.11-.3,1.35-.25.31.07,1.6,1.83,1.72,2.13.2.48.17.76.07,1.25-.33,1.72-2.1,7.1-2.88,8.64-1.57,3.11-2.78,6.29-4.55,9.38-.14.24-.12.66-.25.82Z"/>
  <path class="cls-2" d="M201.84,140.19c.14.08,1.87,2.38,1.92,2.54.67,2.22-1.57,2.64-2.72,3.43-.55.38-1.76,1.52-2.28,2.04-5.25,5.17-9.16,11.89-14.39,17.29-.27.28-.52.67-.96.59-.13-1.35.85-2.16,1.3-3.13,2.31-4.94,5.76-10.99,9.11-15.25,1.59-2.03,3.87-4.95,5.77-6.58.4-.35,1.77-1.19,2.25-.91Z"/>
  <path class="cls-2" d="M235.89,115.12c-2.76,1.76-6.06,4.56-8.45,6.79-.8.75-3.65,4.2-4.34,4.31-.98.15-.19-.69-.15-.88.05-.28-.13-.62-.06-.79.15-.34.74-.39.82-.5.1-.13-.3-.74-.18-1.23.13-.57,4.16-6.6,4.65-7.12.33-.35,1-.33,1.2-.74.14-.29-.2-.6.08-1.08.59-1.02,6.76-5.68,7.97-6.21,2.48-1.1,2.22-.14,3.34,1.18.73.85,1.8,1.17,1.31,2.51s-4.28,2.32-5.57,3.08c-.39.23-.47.6-.62.69Z"/>
  <path class="cls-2" d="M287,170c.11.11,1.16,1.35,1.21,1.43.53.86.4,3.12-.77,3.3s-2.84-1.49-4.06-1.94c-5.85-2.17-12.19-.06-18.04.03-.65.01-1.31.36-2.01.22-.04-1.15,1.18-1.22,1.98-1.69,2.7-1.58,6.45-3.43,9.69-3.8,3.7-.43,9.22-.29,12.01,2.45Z"/>
  <path class="cls-2" d="M178.29,180.65c-4.49,3.97-8.16,10.01-11.17,15.35-.93,1.66-1.66,3.77-2.64,5.28-.15.23-.26.63-.64.55-1.03-.22.35-2.46.48-2.88.9-2.95,1.73-6.78,3.03-9.45,1.72-3.55,5.13-9,7.45-12.24.22-.31,1.56-1.91,1.76-2.07.27-.21.72-.6,1.08-.37.31.19,1.62,2.71,1.67,3.16.08.65-.59,2.28-1.02,2.67Z"/>
  <path class="cls-2" d="M442.45,199.13c.15.16.82-.13.83.98,0,.57-.38.75-.38,1.09,0,.4.52,1.24.61,1.78.51,2.88.89,5.77,1.24,8.6.21,1.7-.49,1.97-.48,2.85.01,1.03.66,2.82.51,3.6-.05.27-.64.04-.73.13-.13.14.53,3.23.23,3.84-.88.03-.86-.52-1.13-1.39-1.79-5.85-2.19-12.38-4.51-18.05-.4-.98-1.91-3.33-1.98-4.25-.06-.74.89-1.76,1.71-1.68.6.06,2.97,1.3,3.53,1.71.26.19.33.55.55.78Z"/>
  <path class="cls-2" d="M397.67,377.71c-.73.74-.28-.01-1.04,1.23-.91,1.49-5.4,7.08-6.66,8.12-.37.31-.79.03-1.12.19-.45.22-1.89,2.67-2.42,3.35-.28.36-1.4,1.9-1.49,1.99-.26.25-2.06.56-2.58.78-.54-.58,1.41-3.41,1.82-4.06,2.95-4.7,6.42-8.94,9.51-13.53.56-.83,1.46-2.92,2.09-3.43,1.78-1.45,3.5,1.84,3.04,3.27-.04.11-1.07,2.01-1.15,2.1Z"/>
  <path class="cls-2" d="M444.25,258.91s-.45-.2-.57.02c-.27.49-.39,2.48-.76,3.33-.13.3-.47.31-.55.47-.34.68-.63,2.79-1.45,1.64-.5-.69-.06-3.3.04-4.3.44-4.46,1.25-9.23,1.15-13.73-.04-1.77-.79-3.94-.95-5.74.05-.26,1.08-1.31,1.33-1.34.29-.03,2.43,1.42,2.63,1.7.24.33.79,2.71.85,3.23.27,2.67-.34,7.11-.75,9.82-.1.64-.79,4.73-.97,4.9Z"/>
  <path class="cls-2" d="M432.7,168.06c.06.06.32.91.31,1.01,0,.14-.5.14-.51.26-.03.51,1.12,1.66.73,2.52l-.47-.13c.34,1.13,1.34,2.36,1.57,3.47.45,2.19.28,4.33.77,6.43.08.34.07.68.05,1.02l-.71-.48c.06.57-.35,1.08-.41,1.59-.05.46.57,1.36-.74.63-.96-.53-2.58-6.48-3.13-7.91-.81-2.08-1.89-4.81-3.4-6.44-1.02-1.11-2.65-1.51-2.11-3.3.03-.1.74-1.14.81-1.14.36-.03,1.69.72,2.24.87.61.16,1.24.08,1.89.27.34.1,2.98,1.22,3.1,1.34Z"/>
  <path class="cls-2" d="M415.63,139.05c.96.97,2.45,2.41,2.45,3.88,0,.09-.92.63-.92.73,0,.23.21.54.22.91,0,.25-.22.54-.21.77,0,.36,1.2.96.95,1.77h-1.44c-.09.08.59,1.27-.12.96-.26-.11-1.14-.48-1.25-.56-.53-.33-1.11-1.46-1.51-1.92s-.68-.83-1.11-1.34c-1.44-1.72-4.14-4.9-6.02-5.98-1.31-.76-3.59-.59-2.98-2.77.19-.7,2.47-.25,2.88-.27.3,0,.46-.24.75-.23.91,0,2.9-.01,3.66.16.55.12,4.01,3.25,4.64,3.88Z"/>
  <path class="cls-2" d="M437.49,285.2c.38.26,1.35,1.46,1.53,1.95.68,1.93-.15,1.88-.61,3.26-.56,1.71-.95,3.39-1.64,5.08-.29.73-1.38,3.47-1.6,3.87-.14.26-.61.17-.84.4-.33.32-.36,1.11-.63,1.55-.18.29-.62.35-.65.41-.05.08.21.47.15.74-.05.24-.37,1.57-.43,1.62-.05.05-.69-.35-.96-.24-.54,1.65-1.08,3.72-1.81,5.27-.69,1.46-1.21.51-1.02-.78.8-5.32,3.61-11.15,4.87-16.5.3-1.27.81-5.74,1.31-6.37.57-.7,1.6-.77,2.33-.27Z"/>
  <path class="cls-2" d="M369.08,420.89c-1.67,1.9-3.98,4.1-5.79,6.31-.22.27-.34.92-.38.95-.06.05-.95-.15-1.55-.01-.75.18-1.27.68-2.03.74-.48-.54,1.41-4.08,1.82-4.77,2.38-3.96,5.7-7.38,8.13-11.3.6-.51,1.6-.95,2.28-.36.13.11.97,3.16.97,3.36,0,1.32-2.53,4.04-3.46,5.09Z"/>
  <path class="cls-2" d="M300.64,468.13c3.16,3.91,4.82,9.51,6.96,14.03.58,3.01,2.68,6.45,3.01,9.48.12,1.13-.6-.87-.72-.6v1.2c-.32.14-.25-1-.72-.48-.08.09.38,1.1.24,1.44-.63.11-.42-.11-.58-.48-3.03-6.97-4.98-13.77-8.82-20.48-.81-1.41-3.3-4.47-3.69-5.67-.11-.32-.14-.63-.11-.97,2.21-.1,3.19,1,4.43,2.53Z"/>
  <path class="cls-2" d="M360.04,216.48c-.34.25-.51-.23-.65-.43-2.74-3.87-4.05-9.68-4.6-14.36-.12-1.02-.47-3.39-.22-4.24.15-.52,2.09-1.5,2.52-1.57.56-.09,1.64,1.19,1.74,1.77.29,1.64.16,4.12.37,5.87s1.92,12.16.84,12.96Z"/>
  <path class="cls-2" d="M388.84,117.6c-.37-.17-1.52.82-1.7,1.06-.3.41-.18,1.05-.22,1.1-.05.06-1.43-.04-1.5-.06-1.45-.34-5.89-3.46-7.7-4.31-1.37-.64-3.09-1.26-4.53-1.71-.43-.13-2.71-.56-2.8-.68-.63-.76.43-1.41,1.05-1.66,1.37-.55,3.8-1.27,5.17-.83,2.73.87,9.63,4.39,11.74,6.26.27.24.59.37.5.82Z"/>
  <path class="cls-2" d="M160.54,212.7c.13.14,1.28,3.29,1.33,3.59.27,1.69-1.54,2.52-1.03,4.03l-.48-.24c0,.25.02.53-.07.77-1.32,3.4-2.64,6.8-3.97,10.2-.32.82-1.27,2.28-1.43,2.89-.32,1.26.12,2.89-1.98,2.94-.13-.56.35-1.27.25-1.76-.08-.4-.58-.13-.19-1.89,1.02-4.5,3.05-9.56,4.5-13.98.73-2.21,1.16-4.87,2.3-6.82.17-.04.62.14.75.28Z"/>
  <path class="cls-2" d="M383.97,263.12c2.01,1.04,4.6,2.99,6.44,4.48.53.43,1.42.45,1.31,1.68-1.41.37-2.16-.64-3.14-1.06-4.45-1.86-8.7-4.27-13.18-6.02-2.33-.91-5.04-1.7-7.13-2.51-.72-.28-1.26.14-1.8-1.04-.75-1.64,1.24-1.52,2.47-1.75l15.03,6.21Z"/>
  <path class="cls-2" d="M164.2,304.08c-.43.07-.67-.06-.98-.34-.09-.08-1.26-1.81-1.35-2.01-1.93-4.21-2.93-14.2-2.91-18.9,0-.29.19-.54.2-.83.22-.16,2.99,1.85,3.25,2.15.97,1.14.32,2.14.34,3.24.04,2.82-.02,5.79.25,8.65.25,2.68,1.01,5.35,1.2,8.04Z"/>
  <path class="cls-2" d="M153.44,262.76c-.19-.3.38-1.23.2-1.4-.08-.07-.65.07-.72,0-.07-.07.21-.52.17-.8-.51-3.34-1.09-6.59-.89-10.13.05-.97.43-1.95.25-2.99,5.97.23,3.14,7.56,3.6,11.4-.47,2.72.51,5.6.44,8.37-.37,1.17-1.68-1.11-1.9-1.63-.31-.73-.27-1.82-.51-2.38-.16-.36-.58-.35-.64-.44Z"/>
  <path class="cls-2" d="M245.99,196.87c2.54-.3,5.03.12,5.1,3.19.06,2.74-2.48,1.43-3.97,1.31-4.12-.33-6.91,2.08-10.61,2.83-.36.07-1.17.13-1.26-.31s4.01-4.41,4.76-4.83c1.32-.75,4.52-2.01,5.98-2.18Z"/>
  <path class="cls-2" d="M272.6,439.76c1.51,1.4,3.48,3.79,4.75,5.45,2.39,3.13,5.54,9.06,8.08,11.6.89.89,1.27.44,1.6,2.25.17.9-.31,1.02-1.15,1.25-.22-1.64-1.92-2.54-2.88-3.73-3.08-3.8-5.74-7.91-8.88-11.52-1.17-1.35-3.77-3.3-4.56-4.85-.32-.64-.49-1.34.36-1.51,1.19-.23,1.85.28,2.68,1.04Z"/>
  <path class="cls-2" d="M244.76,410.01c.05.02.88.59.92.63.19.25.52,1.49.85,2.04,2.18,3.75,4.48,7.43,6.58,11.18.45.8,3.84,6.84,3.5,7.17-.58.06-1.15-.35-1.53-.74-1.9-1.94-5.05-7.11-6.61-9.52-2.07-3.19-3.79-6.64-6.12-9.67-.65-2.06,1.22-1.65,2.43-1.1Z"/>
  <path class="cls-2" d="M332.38,481.01c.6-.13,1.73-.12,2.1.44.19.28.85,3.47.8,3.89-.08.74-2.24,5.12-2.73,6.16-.54,1.14-.91,1.82-1.45,3.11s-1.52,2.38-2.13,3.63c-.29,0-.48-1.1-.51-1.35-.38-3.47,1.99-9.17,2.78-12.69.22-1-.31-2.85,1.15-3.17Z"/>
  <path class="cls-2" d="M228.52,406.08c-.21.22-.92-.1-1.21-.35-.78-.69-1.89-3.36-2.55-4.39-.83-1.31-1.89-2.6-2.73-4.02-1.69-2.86-4.73-7.74-5.83-10.68-.86-2.28,1.34-1.78,2.65-1.01,1.46.86.82,1.54,1.14,2.44,1.7,4.87,5.04,9.88,7.27,14.6.25.52,1.56,3.11,1.27,3.41Z"/>
  <path class="cls-2" d="M181.24,348.48c-.29.33-.64-.4-.73-.58-2.1-4.14-4.98-15.07-5.48-19.72-.08-.75-.01-1.5-.03-2.25,1.02.77,2.37.89,3.12,2.04.79,1.23.32,2.32.48,3.6.62,4.82,1.38,10.27,2.33,14.95.06.29.37,1.9.3,1.98Z"/>
  <path class="cls-2" d="M346.78,296.72c1.06.48,3.97,1.19,5.6,1.71,3.5,1.12,6.89,2.37,10.41,3.47l.14.74c-.9-.05-1.85.09-2.74-.02-4.17-.51-8.26-2.41-12.33-3.27-1.52-.32-6.82-.58-7.37-1.75-.48-1.04.5-1.38,1.37-1.51.31-.05,4.7.52,4.92.62Z"/>
  <path class="cls-2" d="M202.12,377.28c-.12.13-1.27-.42-1.45-.65-1.7-2.08-3.77-8.1-5.17-10.85-.61-1.19-1.58-2.42-2.19-3.57-.56-1.07-1.2-2.24-1.03-3.41,1.12.07,2.86,1.01,3.46,1.94,1.49,2.32,3.72,8.09,4.74,10.86.28.76,1.93,5.37,1.64,5.68Z"/>
  <path class="cls-1" d="M363.59,416.21s.71.73.53.9c-4.22,1.96-8.86,2.98-13.44,3.84-.35-.87.48-1.01.48-1.08,0-.15-.78-.07-.48-.84l11.82-2.18c.24-.09.48-.91,1.09-.65Z"/>
  <path class="cls-1" d="M322.84,401.76c.02.49-.63-.04-.48.6.02.08,1.39.59-.38.82-.8.1-2.77.18-2.98-.82-.11-.55.25-.32.59-.35,1.08-.1,2.17-.07,3.24-.24Z"/>
  <path class="cls-2" d="M418.24,147.36c.16.08.16.16,0,.24v-.24Z"/>
  <path class="cls-3" d="M310.36,341.76c-.42.06-.23-.54-.24-.84-.25-6.3.17-12.66,0-18.97-.29-11.88-1.42-23.71-1.45-35.53-.03-12.69.32-25.39.73-38.13.83-25.55,3.47-50.96,5.99-76.33,1.97-19.86,4.82-39.64,6.42-59.53.33-4.1.81-7.46,1.44-11.58,1.88-12.31,3.08-24.41,5.93-36.55.18-.75.58-1.4.74-2.15.91.32,4.32.47,4.44,1.56-.95,7.52-2.97,14.81-3.81,22.35-.6,5.39-.71,10.88-1.24,16.28-4.19,42.83-8.91,85.57-12.46,128.41-1.85,22.39-3.7,44.71-3.87,67.21-.01,1.32-.24,4.59-.12,5.51.04.31.48.55.51.95.06.83-.75,3.62-.86,4.81-.61,6.84-.72,13.79-1.21,20.63-.28,3.96-.65,7.93-.96,11.88Z"/>
  <path class="cls-3" d="M355.48,47.04l-8.85,45.57c5.38,1.08,10.93,1.3,16.34,2.26,14.45,2.56,33.32,9.08,45.19,17.69,9.57,6.95,18.25,15.54,26.04,24.6,2.99,3.47,5.56,8.47,7.48,12.68,4.54,9.96,9.82,22.56,12.58,33.05,3.52,13.37,8.04,27.61,7.49,41.88-.98,12.48-.58,24.59-3.47,36.8-4.73,19.91-11.01,38.72-17.6,58-2.13,6.24-4.06,13.6-6.6,19.56-2.37,5.56-6.68,11.97-9.6,17.52-5.39,10.25-10.54,20.63-15.89,30.9s-10.59,21.38-16.54,31.47c-3.92,6.66-8.46,13.05-12.52,19.64-.76,1.24-.96,2.96-2.69,2.48.95,1.34-.15,2.04-.77,3.19-1.2,2.23-2.54,4.45-3.88,6.68-3.76,6.28-7.76,12.42-11.32,18.92-8.71,15.93-14.99,32.84-21.52,49.76-.54,1.41-1.12,3.02-1.41,4.47-3.84-.18-7.68-.91-11.52-1.3-2.77-4.93-5.58-9.87-8.68-14.6-16.05-24.45-38.25-45.33-60.21-64.36-16.3-14.12-32.84-28.13-49.31-42.12-2.93-2.49-6.79-5.13-9.59-7.93-4.8-4.8-8.78-11.91-13.66-16.82-6.11-9.13-14.4-18.51-19.72-28.04-3.51-6.29-7-14.96-9.99-21.69-6.58-14.81-11.24-29.47-15.3-45.18-.46-6.38-1-12.78-1.23-19.17-.18-4.93-.64-11.83-.24-16.58.22-2.59,1.36-6.63,2-9.28,1.6-6.62,3.7-13.42,5.76-19.92,11.8-37.21,35.27-68.92,61.12-97.52,6.23-4.92,11.61-11.96,17.79-16.77,8.22-6.39,18.67-13.97,28.3-17.78,3.93-1.56,7.96-2.89,11.92-4.4,6.66-2.54,12.38-2.29,19.17-3.63.42-.08.88,0,1.3-.02.07-.05-1.18-1.3.12-.96.08.02.14.4.29.49.36.21,5.37-.05,6.43,0,4.39.2,9.85,1.58,13.94,1.45,1.02-.03.85-1.13,1.84.29.9.12,5.77,1.96,6.18,1.75.57-.28,1.05-2.3,1.16-2.96.07-.39-.19-.94-.16-.98.05-.07.44-.08.64-.43,1.02-1.78,2.1-8.28,2.57-10.64.7-3.47,1.02-7.44,1.91-10.81.74-2.81,1.43-1.71,3.84-1.92,2.6-.23,5.04-.47,7.44-.72,1.72-.17,2.8-.65,4.31-.85,2.13-.29,4.92-.65,7.37-1.14,3.92-.78,7.76-2.12,11.71-2.56ZM373.24,205.92h5.16c.08,0,1.18.3,1.59.38,1.29.25,2.88,1.04,4.17,1.06.19,0,1.74-.17,1.8-.24.02-.02.03-.6-.03-.69-.18-.29-5.55-2.26-6.3-2.46-1.35-.37-3.23-.75-4.62-.9-1.08-.12-2.3.12-3.32-.04-.88-.14-2.48-2.1-3.12-2.88-4.64-5.68-8.99-12.51-13.47-18.45-2.05-2.72-4.26-5.35-6.34-8.06,1.93.15,3.71-.76,5.64-.86,2.51-.13,5.26.78,7.68.98.91.07,4.08.37,3.01-1.09-.43-.59-5.18-1.55-6.2-1.72-3.83-.61-8.02-1.12-11.66.38l-11.33-15.07c-.85-.83-5.39,1.36-5.62,1.18-.66-.5.42-1.51.45-1.84.04-.38-.53-.64-.45-.8.02-.03.38.1.56-.29.85-1.85.28-5.05.45-7.03.23-2.72,1.29-6.86,1.18-9.37-.02-.46-.49-.33-.48-.45.27-4.36,1.7-8.77,1.41-13.21-.04-.54-.68-1.12-.47-1.81.42-.12.12.58.36.48.65-.27.02-.68-.07-1.13-.33-1.61.61-.79.69-1.16.28-1.45-.64-3.99-.26-5.63-.39-.16-.11,1.29-.71.72-.07-.07-.67-1.72-.67-1.84,0-.36,1.11-2.5.9-2.72-.25-.08-.89.44-.96.12-.13-.61.6-.14.92-.76.64-1.24-.22-4.43.92-5.08.34-.2.93-.19,1.34-.34.32-.12.54-.53.77-.56,5.17-.74,12.71.34,18.01.64,1.4.08,3.34-.3,4.57-.97.91-.5,1.32-1.02,0-1.21-5.38-.76-11.1-1.14-16.56-1.44-.75-.04-1.67-.38-2.44-.38-1.99,0-2.97,1.42-4.88,1.58.37-.72.8-5.24.61-5.52-.13-.2-.58-.26-.72-.49-.06-.1-.69-2.08-.61-2.15s.64.17.73-.14c.2-.67.38-2.96.46-3.83.81-8.53,2.46-16.95,2.89-25.42l1.63-5.6c.45-1.31-1.94-2.13-2.9-1.93-1.15.23-.83,1.19-1.27,1.86-.77,1.18-2.72-.35-3.66-.64-.56-.17-1.56-.02-2.05-.3-.36-.21.07-.9-1.31-1.15-.91-.16-5.99-.01-6.48.48-.55.55-.21,3.41-.3,4.38-.41,4.63-1.75,10.18-2.81,14.71-.65,2.78-.78,4.34-1.03,7.13-.65,7.24-2.95,14.88-3.36,21.88-.03.43.43.27.48.49.17.7.44,4.08.48,5,.06,1.42-.37,9.18-1.02,9.92-.05.05-.77.01-.41.51.01.02.42-.07.48.16.17.62-.4,2.73-.48,3.57-.89,8.79-2.1,17.42-3.14,26.14-.21,1.77.19,5.38-.74,6.7-.6.85-1.55.74-1.17,2.31-.54-.09-.95-.31-1.53-.24-1.47.17-10.45,7.76-12.4,9.23-25.16,18.88-52.15,36.2-75.89,56.76-6.52,5.65-12.89,11.65-19.14,17.41-.42.39-1,.58-1.36.92-.62.59-2.98,4.25-1.98,4.94.69.48,1.08-.49,1.36-.7,8.74-6.4,16.42-14.56,24.62-21.76,2.15-1.89,4.39-3.69,6.52-5.6.53-.1.36.24.37.6.12,3.97-1.43,11.31-3.01,14.99-.43,1-1.47,2.32-1.75,3.29-.2.69-.68,3.81.86,3.13.18-.08,1.44-2.21,1.62-2.57,2.12-4.23,5.31-15.66,4.87-20.23-.08-.79-.91-.55.15-1.63,1.92-1.96,5.74-4.55,8.07-6.33,9.7-7.42,19.96-14.04,29.95-21.17,11.9-8.49,23.46-17.4,35.32-25.88.6-.43,3.71-2.85,4.05-1.68-.61,1.1-.25,1.89-.32,2.82-.38,5.18-1.25,10.26-1.59,15.4-.03.52,0,1.04,0,1.56l.72-.72c-.2,1.39-.07,3.58-.5,4.85-1.01,3.03-1.18,4.86-1.18,8.23,0,1.39.14.59.24.99.16.68-.1,1.73,0,2.48l-.48-1.44-.24,4.08.48-.48c.08,2.34-.3,4.67-.72,6.96l-.36-.72c-1.14,1.11.15,1.98.32,2.57.27.98-.28,2.7-.36,3.62-.08.97-.31,6.76-.56,7-.31.29-1.29-.71-.95,1.45-2.32-1.3-3.77,1.83-5.28,3.24-5.05,4.75-10.17,9.37-15.24,14.04-1.91,1.75-4.07,3.25-5.48,5.2-.23.31-1.97,1.76-2.45,2.23-4.24,4.05-8.81,7.99-13.29,11.91-.62.54-3.06,3.77-4.06,3.18-.2-.11-.44-1.22-1.36-1.4-.74-.14-1.87.08-2.61.26-3.93.97-7.78,2.56-11.36,4.24-1.17.55-3.75,1.37-4.64,2.08-.62.5-.64,1.09-1.05,1.59-.5.6-1.73.99-1.58,2.14.41.39,9.34-2.93,10.74-3.29,1.61-.41,4.87-1.2,6.42-1.26.36-.01.69-.17.59.35-2.43,2.07-5,3.97-7.52,5.93-6.02,4.69-14.03,9.41-19.47,14.36-1.34,1.22-2.53,2.93-3.01,4.67.33.34.95,0,1.3-.14,1.38-.59,3.54-2.16,4.88-3.04,12.57-8.28,24.92-18.16,36.12-28.14,6.04-5.38,11.7-11.24,17.83-16.55.25.07.12.58.06.78-1.16,4.33-1.59,9.05-1.4,13.53.03.76-.74,1.2.5,1.05-.2-.75.29-1.22.46-1.83.8-2.85,1.23-5.86,2.12-8.68.58-1.86,2.38-5.19,2.61-6.77.1-.7-.36-1.36-.02-1.92.29-.49,4.7-4.5,5.48-5.2,2.42-2.18,5.06-4.07,7.38-6.18.46-.42,3.42-3.94,4.06-3.26l-.97,14.51c.51,6.46-.91,13.85-.22,20.16.27,2.46.17,1.59-.16,3.9-.77,5.5.4,11.61.1,17.18-1.59,1.91-2.89,4.03-4.18,6.15-.11.19-.52.21-.57.43-.17.67.09,2.58-.35,3.2-.3.43-1.27.09-1.81.35-.64.31-2.35,3.28-2.87,4.02-2.48,3.53-5.01,7.01-7.5,10.57-.79,1.14-4.39,7.14-4.99,7.51-.13.08-1.94-.19-2.52-.13-2.27.22-4.18,1.44-6.09,2.55-5.89,3.44-12.06,7.73-16.83,12.46-.98.97-1.4,1.79-2.06,2.97-.48.86-1.31,1.3-1.05,2.42.26.27,3.86-2.08,4.39-2.44,3.26-2.2,6.43-4.79,9.67-6.88,3.42-2.2,6.88-4.27,10.56-6.02.38-.08.37-.03.34.34-.06.89-1.08,1.58-1.54,2.3-6.02,9.54-10.97,17.45-18.39,26-1.57,1.82-2.4,3.6-4.05,5.32-2.13,2.22-4.62,6.02-6.55,8.57-1.68,2.22-4.88,5.76-4.91,8.64-.02,2.02.24,3.23,1.95,1.36,1.48-1.61,3.02-4.32,4.44-6.12,6.91-8.78,14.29-17.21,20.63-26.41,10.05-14.58,18.91-29.52,29.63-43.57,1.57-2.05,2.58-4.61,4.45-6.46.04.83-.05,1.67.01,2.51.08,1.02.05,1.11.06,1.96.11,8.24,1,16.29,1.37,24.21.21,4.52-.13,8.7.47,13.21.27,2.01-.38,3.67-.46,5.51-.2,4.11.75,8.32.48,12.25-.29,4.23-.12,7.56.04,11.75.08,2.12-.42,5.83-.05,7.4.04.19.48.16.49.3.02.33-.38.97-.4,1.46-.04.86.36,1.96.42,2.85.04.54-.29,1.06-.25,1.65.06.84.64,2.04.72,3.14.23,3.08-.2,5.36.21,8.67.2,1.66-.56,3.18-.42,4.78.16,1.84.96,3.48.7,5.53-.06.47-.51.24-.53.69-.06,2.11.19,5.2.32,7.37.05.85.61,1.56.69,2.23.09.82-.29,1.56-.27,2.39.06,2.33.73,4.89.97,7.22.76,7.38,1.19,15.04,1.18,22.34,0,3.1.57,5.5.69,8.37.03.7-.42,1.46-.14,2.35.19.6,1.78,2,1.87,2.45.65,3.37.45,7.18.73,10.55.17,2,.51,4.01.71,6.01.3,2.97-.72,7.07,3.24,7.57.9-1.37.89-3.22.86-4.94-.1-4.37-.75-9.9-1.43-14.17-.08-.51-.31-1.74-.29-2.14.03-.51.88-.52,1.12-1.31.61-1.98.12-6.13-.16-8.26-.16-1.16-.7-2.15-.86-3.22-1.58-10.18-2.25-20.45-3.2-30.4-.24-2.53,1.01-4.46.7-7.18-.09-.82-.66-1.82-.7-2.21-.04-.47.43-.83.5-1.41.16-1.19-.59-3.11-.51-4.08.01-.16.5-.09.5-.26,0-.39-.48-.56-.45-.92.17-1.7.48-3.24.39-5.08-.02-.51-.08-2.01-.67-1.8v-.23c.73.24.4-.86.18-1.27-.35-.65-1.07-.53-1.15-.78-.18-.58.55-.25.89-.43.56-.3,1.03-2.56,1-3.18-.05-1-1.02-1.29.28-2.62-.58-.76-.15-1.81-1.25-1.58-.19-.56-.99-.29-.92-.83.09-.63.58-.82.88-1.18.11-.13.04-.48.14-.57.22-.18,1,.17.66-.65-.09-.23-.68-.31-.73-.48-.26-.91,1.3-.47,1.44-1.26.03-.19-.18-2.3-.24-2.54-.05-.19-.46-.16-.49-.31-.08-.56.65-1.44.51-2.09-.06-.3-.87-.27-.74-.76,1.27-.54.71-1.64.96-2.76l.72.72c.26-1.58-.29-.95-.73-1.36-1.64-1.52.71-1.78.75-1.91.06-.21.04-1.31-.06-1.48-.12-.21-1.11-.4-1.17-.69-.19-.98.37-1.9,1.46-1.52-.48-1.26-1.2-2.69-.47-3.94-1.19-.57-.63-2.45.47-2.78.01.55.19,1.06-.48.96v.23s.72.48.72.48c.06-.48-.1-1.06,0-1.52.04-.19.45-.18.48-.28.28-.96-.99-.43-1.2-1.44-.25-1.18.44-.97.5-1.42.07-.53.06-1.88,0-2.43-.08-.73-.61-1.37-.51-1.9.03-.16,3.15-1.28-.23-1.56.09-.39.24-2.04.97-1.57.55.36,1.5,2.98,1.9,3.62.95,1.47,3.21,3.26,4.45,4.67,4.66,5.28,8.97,11.21,12.8,17.2,3.04,4.76,5.92,11.27,9.52,15.44,1.08,1.25,2.49,2.36,3.6,3.6.13-1.55-1.17-3.59-1.92-5.04-3.9-7.53-8.42-14.78-12.95-21.61-.15-.23-1.2-1.81-1.09-1.9,1.82-.11,3.49,1.18,5.04,1.8,4.04,1.62,8.14,3.2,11.97,5.31,2.58,1.42,5.05,3.93,8.18,3.93.65-.62-2.8-2.97-3.28-3.32-3.3-2.39-6.78-3.92-10.37-5.71-3.14-1.55-7.97-4.4-11.26-5.08-.87-.18-1.53.51-2.2.91-2.65-3.97-5.65-7.69-8.75-11.3-1.73-2-2.53-5.93-3.89-7.84-.5-.7-1.92-1.11-1.77-2.22l1.2-.36c.18-.48-.48-.29-.48-.49,0-.19.26-.47.22-.69-.05-.27-.55-.29-.64-.42-.16-.26.1-3.82.2-4.38s.73-1.26.69-1.95c-.03-.55-.58-.68-.7-.94-.08-.19.35-.02.47-.3.33-.8.51-1.66-.47-1.63.36-1.32.52-2.83,1.19-4.04.18-.32.65-.09.73-.16.59-.5-.68-.43-.74-.61-.2-.68.39-2.12.02-2.99,1.58.25-.1-1.59.24-2.64l1.2.96c.14-.35-.25-.98-.19-1.16.02-.05.87-.48.91-.69.12-.64-.28-1.25-.27-1.87.01-.45.46-.22.53-.69.21-1.55-.46-1.74-.52-2.16-.05-.37.11-1.74.02-1.82-.1-.09-1.28.22-1.42-.38-.05-.21.28-.72.22-1.16-.05-.36-.42-.62-.47-.99-.28-2.12.61-2.89.68-4.32,0-.12-.41-.09-.53-.39-.18-.45-.36-1.69.2-1.87.9-.29.79.92.84.96.93.78.69-2.72.73-2.99.07-.44.41-.71.48-1.44s-.09-1.56-.02-2.3l-.48.24c.06-.58-.09-1.26-.02-1.82.06-.44.42-.3.49-.52.32-1.07.21-2.77.25-3.91l-.48.48c-.19-3.55,1.24-.92,2.39.12.9.81,2.15,1.52,3,2.28.91.81,5.72,5.33,6,6,.32.75.49,2.81.86,3.94.97,2.96,2.22,6.04,3.39,8.85.74,1.76,2.28,5.55,4.03,6.53.17.1.24.17.48.11l-.02-1.78-2.5-11.17c2.11,1.43,3.4,3.39,5.04,5.28,1.89,2.18,2.74,3.52,4.34,5.74,1.77,2.46,3.77,5.05,7.06,4.94,1.85-.06-.49-2.02-.92-2.68-6.03-9.38-15.67-18.02-23.56-26.12-2.35-2.41-5.51-5.01-7.57-7.32-.57-.64-.23-1.4-1.78-1.21.42-1.38.1-2.81.27-4.17.24-1.93,1.43-4.37.93-6.47-.06-.27-.82.1-.22-1.42.31-.79.63-1.3.7-2.47.1-1.67-.85-2.81-.31-4.15.12-.3.51-.16.57-.64.13-1.02.13-2.5.21-3.62.2-2.73.01-5.82.23-8.39.07-.77.78-1.21.5-2.36-.06-.25-.66-.04-.48-.75.02-.09.35-.08.45-.32.41-.96.87-4.67.77-5.69-.05-.5-.51-.91-.46-1.15.26-1.42.1-.7.03-1.91-.06-1.09.62-1.68.64-1.78.37-1.62,1.09-7.98.98-9.55-.04-.64-1-1.81.1-1.81.62,0,1.19,1.59,1.67,2.18,2.12,2.59,7.54,5.65,8.7,8.45.22.52-.02,1.33.09,1.96.71,3.81,4.05,10.89,5.47,14.49,1.05,2.66,1.8,4.42,3.39,6.71.2.29,1.44,2.94,1.88,1.58.13-.41.04-.92-.02-1.34-.66-4.49-3.4-12.14-5.05-16.54-.19-.5-.96-1,.19-.92l7.8,7.56c5.84,6.47,10.12,13.98,15.25,20.99,1.59,2.17,6.38,8.57,8.5,9.5.56.24,4.04,1.17,4.41,1.05.64-.21.38-1.76.1-2.08-.17-.19-.88-.25-1.27-.53-2.38-1.77-5.45-6.78-7.26-9.3-5.1-7.11-10.05-14.77-16.13-21.07-4.5-4.67-9.51-8.91-13.93-13.67-.29-.31-.95-.94-1.12-1.17-.3-.4.36-.89-.79-.4.3-1.2-.77-1.29-1.13-1.75-2.46-3.2-4.93-6.56-7.5-9.62-.21-.25-.6-.07-.76-.3-.16-.24-.11-.79-.34-1.06-.68-.8-2.06.55-1.55-2.51.24-1.45.72-1.87.72-3.41.01-7.05,1.2-13.96,2.12-20.87.18-1.33.02-3.95.27-4.97.05-.19.47-.15.49-.31.08-.62.08-2.85.14-3.85.37-6.12.65-12.56,1.41-18.69.09-.72.56-1.44.37-2.27,1.74,1.4,3.4,2.92,4.92,4.56,3.99,4.29,7.11,9.2,10.79,13.69.49.6,1.61,1.05,1.69,1.19.19.28.07.82.24,1.2.21.45.82.55,1.08.91,7.24,9.88,14.56,19.72,21.68,29.72.72,1.01,2.73,2.73,2.82,4.06.05.82-.64,2.33-.74,3.37-.27,2.98-.2,8.72,1.48,11.24.23.34,2.04,2.16,2.35,1.84.63-2.97.19-6.3.75-9.22.06-.31.22-1.25.69-.86.1.09,1.21,1.87,1.48,2.24.22.3.61.42.78.66.31.44.65,1.76.93,2.07.9,1,.45-.04,1.26,1.74.48,1.07,2.44,3.35,3.24,4.45,2.14,2.95,4.46,6.38,6.82,9.25,1.51,1.84,3.27,4.3,6.01,4.32.34,0,1.63-.1,1.56-.61-.15-1.18-2.03-3.4-2.73-4.47-3.6-5.48-7.3-11.26-11.08-16.76-2.18-3.17-4.74-7.28-7.1-10.18-.49-.6-2.1-1.78-2.37-2.25-.83-1.44-.94-2.08-2.04-3.42-.26-.32-1.92-1.8-1.55-2.17ZM300.44,86.73c-2.94-1.87-6.92-2.11-10.16-.86-.6.23-1.75,1.31-1.99,1.85-.08.18.35.04.47.29.42.93.2,2.18.25,3.19,1.56.4,3.31-.5,4.67-.49,2.85.03,6.65,1.24,9.14,2.64.97.55,6.77,6.11,7.55,5.29.04-.4-.04-.78-.16-1.16-.19-.61-2.93-5.17-3.33-5.54-.45-.41-1.27-.53-1.76-.88-1.47-1.07-2.99-3.25-4.68-4.32ZM277.41,91.51c-.32-.36-2.02-1.36-2.5-1.46-6.14-.51-12.09,2.12-17.24,5.21.55,1.16-.8,1.29-1.18,1.95-.06.1-.78,1.96-.8,2.08-.16.69,0,1.52-.05,2.23.45.46,3.45-1.81,4.02-2.1,5.11-2.56,12.72-4.48,18.3-2.82.62.18.82.92,1.76.32.6-.38.49-1.05.3-1.65-.07-.22-2.38-3.49-2.61-3.75ZM235.89,115.12c.14-.09.22-.47.62-.69,1.29-.75,5.08-1.72,5.57-3.08s-.58-1.65-1.31-2.51c-1.12-1.32-.86-2.27-3.34-1.18-1.21.54-7.38,5.19-7.97,6.21-.28.48.06.8-.08,1.08-.2.41-.87.39-1.2.74-.49.52-4.52,6.55-4.65,7.12-.11.49.28,1.09.18,1.23-.07.1-.67.16-.82.5-.08.18.11.51.06.79-.04.2-.83,1.03.15.88.7-.1,3.54-3.55,4.34-4.31,2.39-2.23,5.69-5.03,8.45-6.79ZM388.84,117.6c.09-.45-.23-.58-.5-.82-2.11-1.87-9.01-5.38-11.74-6.26-1.36-.44-3.8.28-5.17.83-.61.25-1.67.91-1.05,1.66.09.11,2.37.54,2.8.68,1.45.45,3.17,1.07,4.53,1.71,1.81.84,6.25,3.96,7.7,4.31.07.02,1.45.11,1.5.06.04-.05-.08-.69.22-1.1.18-.24,1.33-1.24,1.7-1.06ZM415.63,139.05c-.63-.63-4.09-3.76-4.64-3.88-.76-.17-2.75-.15-3.66-.16-.29,0-.45.23-.75.23-.4.01-2.68-.43-2.88.27-.61,2.18,1.67,2.01,2.98,2.77,1.88,1.09,4.58,4.26,6.02,5.98.43.51.69.87,1.11,1.34s.98,1.59,1.51,1.92c.11.07.99.44,1.25.56.71.31.03-.88.12-.96h1.44c.25-.81-.95-1.41-.95-1.78,0-.24.22-.53.21-.77,0-.37-.21-.68-.22-.91,0-.11.92-.64.92-.73,0-1.46-1.49-2.91-2.45-3.88ZM201.84,140.19c-.48-.28-1.85.56-2.25.91-1.9,1.64-4.18,4.56-5.77,6.58-3.35,4.26-6.8,10.31-9.11,15.25-.45.97-1.44,1.79-1.3,3.13.45.07.69-.31.96-.59,5.23-5.4,9.14-12.12,14.39-17.29.52-.52,1.73-1.66,2.28-2.04,1.15-.79,3.39-1.2,2.72-3.43-.05-.15-1.78-2.46-1.92-2.54ZM418.24,147.36v.24c.16-.08.16-.16,0-.24ZM432.7,168.06c-.12-.12-2.77-1.24-3.1-1.34-.65-.19-1.28-.11-1.89-.27-.56-.15-1.88-.9-2.24-.87-.07,0-.78,1.04-.81,1.14-.53,1.79,1.09,2.19,2.11,3.3,1.5,1.63,2.58,4.36,3.4,6.44.56,1.42,2.17,7.37,3.13,7.91,1.31.73.68-.17.74-.63.06-.51.47-1.02.41-1.59l.71.48c.02-.34.03-.69-.05-1.02-.49-2.1-.32-4.24-.77-6.43-.23-1.11-1.23-2.34-1.57-3.47l.47.13c.38-.85-.76-2-.73-2.52,0-.12.5-.12.51-.26,0-.1-.25-.94-.31-1.01ZM287,170c-2.79-2.74-8.3-2.88-12.01-2.45-3.24.37-6.98,2.22-9.69,3.8-.8.47-2.02.53-1.98,1.69.7.14,1.36-.21,2.01-.22,5.85-.1,12.19-2.21,18.04-.03,1.23.46,2.88,2.13,4.06,1.94s1.3-2.44.77-3.3c-.05-.08-1.1-1.32-1.21-1.43ZM178.29,180.65c.44-.39,1.11-2.02,1.02-2.67-.06-.45-1.36-2.96-1.67-3.16-.37-.23-.82.16-1.08.37-.2.16-1.54,1.76-1.76,2.07-2.31,3.24-5.73,8.69-7.45,12.24-1.3,2.67-2.13,6.5-3.03,9.45-.13.41-1.5,2.66-.48,2.88.38.08.49-.32.64-.55.98-1.51,1.7-3.63,2.64-5.28,3-5.34,6.68-11.38,11.17-15.35ZM360.04,216.48c1.08-.79-.62-11.12-.84-12.96s-.08-4.23-.37-5.87c-.1-.57-1.18-1.85-1.74-1.77-.43.07-2.37,1.05-2.52,1.57-.25.86.1,3.22.22,4.24.55,4.68,1.86,10.49,4.6,14.36.14.19.31.67.65.43ZM442.45,199.13c-.22-.23-.3-.59-.55-.78-.56-.42-2.93-1.66-3.53-1.71-.83-.08-1.77.94-1.71,1.68.07.91,1.58,3.26,1.98,4.25,2.32,5.67,2.73,12.2,4.51,18.05.27.87.25,1.42,1.13,1.39.29-.61-.37-3.7-.23-3.84.08-.09.68.14.73-.13.15-.79-.5-2.58-.51-3.6,0-.88.69-1.15.48-2.85-.35-2.83-.73-5.72-1.24-8.6-.09-.54-.61-1.38-.61-1.78,0-.34.39-.52.38-1.09,0-1.11-.67-.82-.83-.98ZM245.99,196.87c-1.46.17-4.67,1.43-5.98,2.18-.75.43-4.85,4.41-4.76,4.83s.9.39,1.26.31c3.71-.74,6.5-3.16,10.61-2.83,1.5.12,4.04,1.42,3.97-1.31-.07-3.07-2.56-3.49-5.1-3.19ZM160.54,212.7c-.13-.13-.59-.32-.75-.28-1.14,1.95-1.58,4.61-2.3,6.82-1.45,4.41-3.48,9.47-4.5,13.98-.4,1.76.1,1.49.19,1.89.1.49-.38,1.2-.25,1.76,2.09-.05,1.65-1.68,1.98-2.94.16-.61,1.11-2.07,1.43-2.89,1.33-3.4,2.64-6.8,3.97-10.2.09-.24.07-.52.07-.77l.48.24c-.51-1.51,1.3-2.34,1.03-4.03-.05-.3-1.2-3.45-1.33-3.59ZM444.25,258.91c.19-.17.88-4.26.97-4.9.41-2.7,1.02-7.15.75-9.82-.05-.53-.61-2.9-.85-3.23-.21-.29-2.35-1.73-2.63-1.7-.25.03-1.29,1.08-1.33,1.34.16,1.8.91,3.96.95,5.74.1,4.51-.71,9.28-1.15,13.73-.1,1.01-.54,3.61-.04,4.3.83,1.15,1.12-.96,1.45-1.64.08-.16.42-.16.55-.47.37-.85.5-2.84.76-3.33.12-.22.53.02.57-.02ZM153.44,262.76c.06.1.48.08.64.44.24.56.2,1.65.51,2.38.22.51,1.52,2.8,1.9,1.63.07-2.77-.91-5.65-.44-8.37-.46-3.83,2.37-11.17-3.6-11.4.18,1.04-.2,2.02-.25,2.99-.2,3.53.39,6.78.89,10.13.04.28-.23.74-.17.8.07.07.65-.07.72,0,.17.17-.39,1.09-.2,1.4ZM383.97,263.12l-15.03-6.21c-1.23.23-3.22.11-2.47,1.75.54,1.18,1.09.76,1.8,1.04,2.09.81,4.8,1.6,7.13,2.51,4.48,1.75,8.73,4.16,13.18,6.02.98.41,1.73,1.43,3.14,1.06.11-1.23-.78-1.24-1.31-1.68-1.84-1.49-4.43-3.44-6.44-4.48ZM164.2,304.08c-.18-2.69-.94-5.37-1.2-8.04-.27-2.85-.21-5.83-.25-8.65-.02-1.09.63-2.1-.34-3.24-.26-.3-3.03-2.31-3.25-2.15-.01.29-.2.54-.2.83-.02,4.7.98,14.69,2.91,18.9.09.2,1.25,1.92,1.35,2.01.31.28.55.41.98.34ZM437.49,285.2c-.73-.5-1.76-.43-2.33.27-.51.62-1.01,5.1-1.31,6.37-1.26,5.35-4.07,11.18-4.87,16.5-.19,1.29.33,2.24,1.02.78.73-1.55,1.27-3.62,1.81-5.27.27-.11.9.29.96.24.06-.06.38-1.38.43-1.62.06-.28-.2-.66-.15-.74.03-.06.48-.12.65-.41.27-.44.3-1.23.63-1.55.23-.23.7-.14.84-.4.22-.4,1.3-3.14,1.6-3.87.69-1.69,1.08-3.37,1.64-5.08.45-1.37,1.29-1.33.61-3.26-.17-.48-1.14-1.68-1.53-1.95ZM346.78,296.72c-.23-.1-4.62-.67-4.92-.62-.87.13-1.85.47-1.37,1.51.54,1.17,5.85,1.43,7.37,1.75,4.07.86,8.16,2.76,12.33,3.27.89.11,1.85-.03,2.74.02l-.14-.74c-3.52-1.09-6.91-2.35-10.41-3.47-1.62-.52-4.54-1.24-5.6-1.71ZM416.39,344.58c.13-.16.11-.58.25-.82,1.78-3.09,2.98-6.27,4.55-9.38.78-1.54,2.55-6.92,2.88-8.64.09-.49.13-.77-.07-1.25-.12-.29-1.41-2.06-1.72-2.13-.24-.05-1.13.14-1.35.25-.65.34-.99,3.55-1.25,4.51-2.23,8.42-6.62,14.73-9.77,22.39-.15.37-.93,2.96-.92,3.16.06.82.98-.94,1.1-1.07.65-.74,2.84-2.5,3.15-2.96.15-.22,0-.62.13-.82.17-.28,1.55-.69,1.76-1.02.39-.61-.82-1.4.58-1.2-.56-1.16.27-.55.66-1.02ZM181.24,348.48c.07-.07-.24-1.69-.3-1.98-.95-4.68-1.72-10.13-2.33-14.95-.16-1.28.31-2.37-.48-3.6-.75-1.15-2.1-1.26-3.12-2.04.01.75-.05,1.5.03,2.25.5,4.65,3.37,15.58,5.48,19.72.1.19.44.92.73.58ZM202.12,377.28c.29-.32-1.35-4.92-1.64-5.68-1.02-2.76-3.25-8.53-4.74-10.86-.59-.93-2.34-1.87-3.46-1.94-.17,1.17.46,2.34,1.03,3.41.61,1.15,1.58,2.38,2.19,3.57,1.4,2.74,3.48,8.76,5.17,10.85.18.23,1.33.78,1.45.65ZM397.67,377.71c.08-.09,1.11-1.98,1.15-2.1.47-1.43-1.26-4.72-3.04-3.27-.63.51-1.52,2.6-2.09,3.43-3.09,4.58-6.56,8.83-9.51,13.53-.4.65-2.36,3.48-1.82,4.06.52-.22,2.32-.53,2.58-.78.09-.09,1.21-1.63,1.49-1.99.53-.68,1.97-3.12,2.42-3.35.32-.16.74.12,1.12-.19,1.26-1.04,5.75-6.63,6.66-8.12.76-1.24.31-.49,1.04-1.23ZM228.52,406.08c.3-.3-1.02-2.89-1.27-3.41-2.23-4.72-5.57-9.72-7.27-14.6-.32-.9.33-1.59-1.14-2.44-1.31-.77-3.5-1.27-2.65,1.01,1.1,2.94,4.14,7.82,5.83,10.68.84,1.42,1.9,2.71,2.73,4.02.65,1.03,1.77,3.7,2.55,4.39.29.25.99.57,1.21.35ZM322.84,401.76c-1.07.17-2.16.15-3.24.24-.34.03-.71-.2-.59.35.21,1,2.17.92,2.98.82,1.77-.23.4-.73.38-.82-.15-.63.5-.1.48-.6ZM244.76,410.01c-1.2-.55-3.08-.96-2.43,1.1,2.33,3.03,4.05,6.48,6.12,9.67,1.56,2.41,4.72,7.58,6.61,9.52.38.39.96.81,1.53.74.34-.33-3.06-6.37-3.5-7.17-2.1-3.75-4.4-7.43-6.58-11.18-.32-.55-.66-1.79-.85-2.04-.03-.04-.87-.61-.92-.63ZM369.08,420.89c.93-1.05,3.47-3.77,3.46-5.09,0-.2-.84-3.25-.97-3.36-.68-.59-1.68-.15-2.28.36-2.43,3.92-5.76,7.35-8.13,11.3-.42.69-2.3,4.23-1.82,4.77.76-.06,1.28-.56,2.03-.74.59-.14,1.48.06,1.55.01.05-.03.16-.69.38-.95,1.81-2.21,4.12-4.41,5.79-6.31ZM363.59,416.21c-.61-.26-.85.56-1.09.65l-11.82,2.18c-.3.77.48.69.48.84,0,.07-.84.21-.48,1.08,4.58-.86,9.22-1.88,13.44-3.84.18-.17-.49-.88-.53-.9ZM272.6,439.76c-.82-.76-1.48-1.27-2.68-1.04-.85.16-.68.87-.36,1.51.79,1.55,3.39,3.5,4.56,4.85,3.14,3.61,5.8,7.72,8.88,11.52.96,1.18,2.66,2.08,2.88,3.73.83-.23,1.31-.36,1.15-1.25-.34-1.81-.71-1.36-1.6-2.25-2.54-2.54-5.69-8.47-8.08-11.6-1.27-1.66-3.24-4.05-4.75-5.45ZM352.78,445.03c-.74-.83-2.03.21-2.58.76-3.56,3.57-8.98,13.96-10.79,18.54-.68,1.71-1.58,3.44-1.44,5.35.48.12.84-.64,1.05-.98.87-1.34.67-.9,1.57-1.79.45-.44.63-1.12,1.1-1.55l.36.72c.8-1.46,1.61-2.68,2.54-4.06,2.47-3.66,4.96-7.68,7.68-11.28.35-.46,1.83-1.77,1.92-1.94.2-.36.03-.58-.05-.91-.11-.45-1.08-2.56-1.35-2.86ZM300.64,468.13c-1.24-1.53-2.22-2.64-4.43-2.53-.03.34,0,.65.11.97.39,1.2,2.88,4.26,3.69,5.67,3.84,6.7,5.79,13.5,8.82,20.48.16.37-.04.6.58.48.15-.34-.32-1.35-.24-1.44.47-.52.4.61.72.48v-1.2c.12-.26.85,1.73.72.6-.32-3.02-2.43-6.46-3.01-9.48-2.14-4.53-3.81-10.13-6.96-14.03ZM332.38,481.01c-1.46.32-.92,2.17-1.15,3.17-.79,3.53-3.15,9.23-2.78,12.69.03.25.22,1.36.51,1.35.61-1.25,1.6-2.36,2.13-3.63s.91-1.97,1.45-3.11c.5-1.05,2.65-5.43,2.73-6.16.05-.41-.62-3.6-.8-3.89-.37-.56-1.49-.57-2.1-.44Z"/>
</svg>